<svg preserveAspectRatio="none" width="100%" height="100%" overflow="visible" style="display: block;" viewBox="0 0 18 18" fill="none" xmlns="http://www.w3.org/2000/svg">
<g id="Frame">
<path id="Vector" d="M9 8.4375C8.38812 8.4375 7.78997 8.25606 7.28121 7.91611C6.77244 7.57616 6.37591 7.09299 6.14175 6.52768C5.90759 5.96237 5.84632 5.34032 5.9657 4.74019C6.08507 4.14006 6.37972 3.58881 6.81239 3.15614C7.24506 2.72347 7.79631 2.42882 8.39644 2.30945C8.99657 2.19007 9.61862 2.25134 10.1839 2.4855C10.7492 2.71966 11.2324 3.11619 11.5724 3.62495C11.9123 4.13372 12.0938 4.73186 12.0938 5.34375C12.0928 6.16398 11.7666 6.95035 11.1866 7.53033C10.6066 8.11032 9.82023 8.43657 9 8.4375ZM13.2188 9C12.6069 9 12.0087 9.18145 11.5 9.52139C10.9912 9.86134 10.5947 10.3445 10.3605 10.9098C10.1263 11.4751 10.0651 12.0972 10.1844 12.6973C10.3038 13.2974 10.5985 13.8487 11.0311 14.2814C11.4638 14.714 12.0151 15.0087 12.6152 15.1281C13.2153 15.2474 13.8374 15.1862 14.4027 14.952C14.968 14.7178 15.4512 14.3213 15.7911 13.8125C16.1311 13.3038 16.3125 12.7056 16.3125 12.0937C16.3116 11.2735 15.9853 10.4872 15.4053 9.90717C14.8253 9.32718 14.039 9.00093 13.2188 9ZM4.78125 9C4.16936 9 3.57122 9.18145 3.06245 9.52139C2.55369 9.86134 2.15716 10.3445 1.923 10.9098C1.68884 11.4751 1.62757 12.0972 1.74695 12.6973C1.86632 13.2974 2.16097 13.8487 2.59364 14.2814C3.02631 14.714 3.57756 15.0087 4.17769 15.1281C4.77782 15.2474 5.39987 15.1862 5.96518 14.952C6.53049 14.7178 7.01366 14.3213 7.35361 13.8125C7.69356 13.3038 7.875 12.7056 7.875 12.0937C7.87407 11.2735 7.54782 10.4872 6.96783 9.90717C6.38785 9.32718 5.60148 9.00093 4.78125 9Z" fill="var(--fill-0, #18181B)"/>
</g>
</svg>
