<svg preserveAspectRatio="none" width="100%" height="100%" overflow="visible" style="display: block;" viewBox="0 0 18 18" fill="none" xmlns="http://www.w3.org/2000/svg">
<g id="Frame">
<path id="Vector" d="M14.625 2.8125H3.375C3.07663 2.8125 2.79048 2.93103 2.5795 3.142C2.36853 3.35298 2.25 3.63913 2.25 3.9375V7.3125C2.25 7.61087 2.36853 7.89702 2.5795 8.10799C2.79048 8.31897 3.07663 8.4375 3.375 8.4375H14.625C14.9234 8.4375 15.2095 8.31897 15.4205 8.10799C15.6315 7.89702 15.75 7.61087 15.75 7.3125V3.9375C15.75 3.63913 15.6315 3.35298 15.4205 3.142C15.2095 2.93103 14.9234 2.8125 14.625 2.8125ZM12.6562 6.46875C12.4894 6.46875 12.3262 6.41927 12.1875 6.32655C12.0487 6.23384 11.9406 6.10206 11.8767 5.94789C11.8129 5.79371 11.7962 5.62406 11.8287 5.46039C11.8613 5.29672 11.9416 5.14638 12.0596 5.02838C12.1776 4.91038 12.328 4.83002 12.4916 4.79746C12.6553 4.76491 12.825 4.78162 12.9791 4.84548C13.1333 4.90934 13.2651 5.01748 13.3578 5.15624C13.4505 5.29499 13.5 5.45812 13.5 5.625C13.5 5.84878 13.4111 6.06339 13.2529 6.22162C13.0946 6.37986 12.88 6.46875 12.6562 6.46875Z" fill="var(--fill-0, #18181B)" fill-opacity="0.48"/>
<path id="Vector_2" d="M14.625 9.5625H3.375C3.07663 9.5625 2.79048 9.68103 2.5795 9.89201C2.36853 10.103 2.25 10.3891 2.25 10.6875V14.0625C2.25 14.3609 2.36853 14.647 2.5795 14.858C2.79048 15.069 3.07663 15.1875 3.375 15.1875H14.625C14.9234 15.1875 15.2095 15.069 15.4205 14.858C15.6315 14.647 15.75 14.3609 15.75 14.0625V10.6875C15.75 10.3891 15.6315 10.103 15.4205 9.89201C15.2095 9.68103 14.9234 9.5625 14.625 9.5625ZM12.6562 13.2188C12.4894 13.2188 12.3262 13.1693 12.1875 13.0766C12.0487 12.9838 11.9406 12.8521 11.8767 12.6979C11.8129 12.5437 11.7962 12.3741 11.8287 12.2104C11.8613 12.0467 11.9416 11.8964 12.0596 11.7784C12.1776 11.6604 12.328 11.58 12.4916 11.5475C12.6553 11.5149 12.825 11.5316 12.9791 11.5955C13.1333 11.6593 13.2651 11.7675 13.3578 11.9062C13.4505 12.045 13.5 12.2081 13.5 12.375C13.5 12.5988 13.4111 12.8134 13.2529 12.9716C13.0946 13.1299 12.88 13.2188 12.6562 13.2188Z" fill="var(--fill-0, #18181B)" fill-opacity="0.48"/>
</g>
</svg>
