<svg preserveAspectRatio="none" width="100%" height="100%" overflow="visible" style="display: block;" viewBox="0 0 18 18" fill="none" xmlns="http://www.w3.org/2000/svg">
<g id="Frame">
<path id="Vector" d="M16.875 14.625H16.3125V6.1875C16.3125 6.03832 16.2532 5.89524 16.1477 5.78975C16.0423 5.68426 15.8992 5.625 15.75 5.625H11.25C11.1008 5.625 10.9577 5.68426 10.8523 5.78975C10.7468 5.89524 10.6875 6.03832 10.6875 6.1875V9H7.3125V2.8125C7.3125 2.66332 7.25324 2.52024 7.14775 2.41475C7.04226 2.30926 6.89918 2.25 6.75 2.25H2.25C2.10082 2.25 1.95774 2.30926 1.85225 2.41475C1.74676 2.52024 1.6875 2.66332 1.6875 2.8125V14.625H1.125C0.975816 14.625 0.832742 14.6843 0.727252 14.7898C0.621763 14.8952 0.5625 15.0383 0.5625 15.1875C0.5625 15.3367 0.621763 15.4798 0.727252 15.5852C0.832742 15.6907 0.975816 15.75 1.125 15.75H16.875C17.0242 15.75 17.1673 15.6907 17.2727 15.5852C17.3782 15.4798 17.4375 15.3367 17.4375 15.1875C17.4375 15.0383 17.3782 14.8952 17.2727 14.7898C17.1673 14.6843 17.0242 14.625 16.875 14.625ZM5.0625 12.9375C5.0625 13.0867 5.00324 13.2298 4.89775 13.3352C4.79226 13.4407 4.64918 13.5 4.5 13.5C4.35082 13.5 4.20774 13.4407 4.10225 13.3352C3.99676 13.2298 3.9375 13.0867 3.9375 12.9375V11.8125C3.9375 11.6633 3.99676 11.5202 4.10225 11.4148C4.20774 11.3093 4.35082 11.25 4.5 11.25C4.64918 11.25 4.79226 11.3093 4.89775 11.4148C5.00324 11.5202 5.0625 11.6633 5.0625 11.8125V12.9375ZM5.0625 9.5625C5.0625 9.71168 5.00324 9.85476 4.89775 9.96025C4.79226 10.0657 4.64918 10.125 4.5 10.125C4.35082 10.125 4.20774 10.0657 4.10225 9.96025C3.99676 9.85476 3.9375 9.71168 3.9375 9.5625V8.4375C3.9375 8.28832 3.99676 8.14524 4.10225 8.03975C4.20774 7.93426 4.35082 7.875 4.5 7.875C4.64918 7.875 4.79226 7.93426 4.89775 8.03975C5.00324 8.14524 5.0625 8.28832 5.0625 8.4375V9.5625ZM5.0625 6.1875C5.0625 6.33668 5.00324 6.47976 4.89775 6.58525C4.79226 6.69074 4.64918 6.75 4.5 6.75C4.35082 6.75 4.20774 6.69074 4.10225 6.58525C3.99676 6.47976 3.9375 6.33668 3.9375 6.1875V5.0625C3.9375 4.91332 3.99676 4.77024 4.10225 4.66475C4.20774 4.55926 4.35082 4.5 4.5 4.5C4.64918 4.5 4.79226 4.55926 4.89775 4.66475C5.00324 4.77024 5.0625 4.91332 5.0625 5.0625V6.1875ZM9.5625 12.9375C9.5625 13.0867 9.50324 13.2298 9.39775 13.3352C9.29226 13.4407 9.14918 13.5 9 13.5C8.85082 13.5 8.70774 13.4407 8.60225 13.3352C8.49676 13.2298 8.4375 13.0867 8.4375 12.9375V11.8125C8.4375 11.6633 8.49676 11.5202 8.60225 11.4148C8.70774 11.3093 8.85082 11.25 9 11.25C9.14918 11.25 9.29226 11.3093 9.39775 11.4148C9.50324 11.5202 9.5625 11.6633 9.5625 11.8125V12.9375ZM14.0625 12.9375C14.0625 13.0867 14.0032 13.2298 13.8977 13.3352C13.7923 13.4407 13.6492 13.5 13.5 13.5C13.3508 13.5 13.2077 13.4407 13.1023 13.3352C12.9968 13.2298 12.9375 13.0867 12.9375 12.9375V11.8125C12.9375 11.6633 12.9968 11.5202 13.1023 11.4148C13.2077 11.3093 13.3508 11.25 13.5 11.25C13.6492 11.25 13.7923 11.3093 13.8977 11.4148C14.0032 11.5202 14.0625 11.6633 14.0625 11.8125V12.9375ZM14.0625 9.5625C14.0625 9.71168 14.0032 9.85476 13.8977 9.96025C13.7923 10.0657 13.6492 10.125 13.5 10.125C13.3508 10.125 13.2077 10.0657 13.1023 9.96025C12.9968 9.85476 12.9375 9.71168 12.9375 9.5625V8.4375C12.9375 8.28832 12.9968 8.14524 13.1023 8.03975C13.2077 7.93426 13.3508 7.875 13.5 7.875C13.6492 7.875 13.7923 7.93426 13.8977 8.03975C14.0032 8.14524 14.0625 8.28832 14.0625 8.4375V9.5625Z" fill="var(--fill-0, #18181B)" fill-opacity="0.48"/>
</g>
</svg>
