<svg preserveAspectRatio="none" width="100%" height="100%" overflow="visible" style="display: block;" viewBox="0 0 18 18" fill="none" xmlns="http://www.w3.org/2000/svg">
<g id="Frame">
<path id="Vector" d="M7.84617 12.7596C7.87436 12.8442 7.88205 12.9342 7.86861 13.0223C7.85517 13.1104 7.82098 13.1941 7.76886 13.2664C7.71674 13.3387 7.64818 13.3976 7.56884 13.4382C7.48949 13.4788 7.40163 13.5 7.3125 13.5H1.6875C1.59837 13.5 1.51051 13.4788 1.43116 13.4382C1.35182 13.3976 1.28326 13.3387 1.23114 13.2664C1.17902 13.1941 1.14483 13.1104 1.13139 13.0223C1.11795 12.9342 1.12564 12.8442 1.15383 12.7596L3.96633 4.32211C4.00364 4.21008 4.07527 4.11264 4.17105 4.04359C4.26684 3.97453 4.38192 3.93738 4.5 3.93738C4.61808 3.93738 4.73316 3.97453 4.82895 4.04359C4.92473 4.11264 4.99636 4.21008 5.03367 4.32211L7.84617 12.7596ZM14.625 5.34375C14.625 4.62061 14.4106 3.91371 14.0088 3.31245C13.6071 2.71118 13.036 2.24255 12.3679 1.96582C11.6998 1.68908 10.9647 1.61668 10.2554 1.75775C9.54621 1.89883 8.89473 2.24705 8.38339 2.75839C7.87205 3.26973 7.52383 3.92121 7.38275 4.63045C7.24168 5.33969 7.31408 6.07484 7.59082 6.74294C7.86755 7.41103 8.33618 7.98206 8.93745 8.38381C9.53871 8.78556 10.2456 9 10.9687 9C11.9381 8.99888 12.8674 8.61331 13.5529 7.92788C14.2383 7.24244 14.6239 6.3131 14.625 5.34375ZM15.75 10.125H9.5625C9.41331 10.125 9.27024 10.1843 9.16475 10.2898C9.05926 10.3952 9 10.5383 9 10.6875V14.625C9 14.7742 9.05926 14.9173 9.16475 15.0227C9.27024 15.1282 9.41331 15.1875 9.5625 15.1875H15.75C15.8992 15.1875 16.0423 15.1282 16.1477 15.0227C16.2532 14.9173 16.3125 14.7742 16.3125 14.625V10.6875C16.3125 10.5383 16.2532 10.3952 16.1477 10.2898C16.0423 10.1843 15.8992 10.125 15.75 10.125Z" fill="var(--fill-0, #18181B)" fill-opacity="0.16"/>
</g>
</svg>
