<svg preserveAspectRatio="none" width="100%" height="100%" overflow="visible" style="display: block;" viewBox="0 0 18 18" fill="none" xmlns="http://www.w3.org/2000/svg">
<g id="Frame">
<path id="Vector" d="M17.1077 9.5625L10.125 2.57977C10.0209 2.47485 9.89701 2.39166 9.76049 2.33505C9.62397 2.27844 9.47756 2.24953 9.32977 2.25H2.8125C2.66332 2.25 2.52024 2.30926 2.41475 2.41475C2.30926 2.52024 2.25 2.66332 2.25 2.8125V9.32977C2.24953 9.47756 2.27844 9.62397 2.33505 9.76049C2.39166 9.89701 2.47485 10.0209 2.57977 10.125L9.5625 17.1077C9.66697 17.2122 9.791 17.2951 9.92751 17.3517C10.064 17.4082 10.2103 17.4373 10.3581 17.4373C10.5058 17.4373 10.6522 17.4082 10.7887 17.3517C10.9252 17.2951 11.0492 17.2122 11.1537 17.1077L17.1077 11.1537C17.2122 11.0492 17.2951 10.9252 17.3517 10.7887C17.4082 10.6522 17.4373 10.5058 17.4373 10.3581C17.4373 10.2103 17.4082 10.064 17.3517 9.92751C17.2951 9.791 17.2122 9.66697 17.1077 9.5625ZM5.90625 6.75C5.73937 6.75 5.57624 6.70051 5.43749 6.6078C5.29873 6.51509 5.19059 6.38331 5.12673 6.22914C5.06286 6.07496 5.04616 5.90531 5.07871 5.74164C5.11127 5.57797 5.19163 5.42763 5.30963 5.30963C5.42763 5.19163 5.57797 5.11127 5.74164 5.07871C5.90531 5.04616 6.07496 5.06286 6.22914 5.12673C6.38331 5.19059 6.51509 5.29873 6.6078 5.43749C6.70051 5.57624 6.75 5.73937 6.75 5.90625C6.75 6.13003 6.6611 6.34464 6.50287 6.50287C6.34464 6.6611 6.13003 6.75 5.90625 6.75Z" fill="var(--fill-0, #18181B)" fill-opacity="0.48"/>
</g>
</svg>
