<svg preserveAspectRatio="none" width="100%" height="100%" overflow="visible" style="display: block;" viewBox="0 0 18 18" fill="none" xmlns="http://www.w3.org/2000/svg">
<g id="Frame">
<path id="Vector" d="M15.1875 2.8125H2.8125C2.51413 2.8125 2.22798 2.93103 2.017 3.142C1.80603 3.35298 1.6875 3.63913 1.6875 3.9375V14.0625C1.6875 14.3609 1.80603 14.647 2.017 14.858C2.22798 15.069 2.51413 15.1875 2.8125 15.1875H15.1875C15.4859 15.1875 15.772 15.069 15.983 14.858C16.194 14.647 16.3125 14.3609 16.3125 14.0625V3.9375C16.3125 3.63913 16.194 3.35298 15.983 3.142C15.772 2.93103 15.4859 2.8125 15.1875 2.8125ZM7.14797 11.4145C7.20023 11.4668 7.24169 11.5288 7.26997 11.5971C7.29826 11.6654 7.31281 11.7386 7.31281 11.8125C7.31281 11.8864 7.29826 11.9596 7.26997 12.0279C7.24169 12.0962 7.20023 12.1582 7.14797 12.2105C7.09571 12.2627 7.03366 12.3042 6.96538 12.3325C6.8971 12.3608 6.82391 12.3753 6.75 12.3753C6.67609 12.3753 6.6029 12.3608 6.53462 12.3325C6.46634 12.3042 6.40429 12.2627 6.35203 12.2105L3.53953 9.39797C3.48723 9.34573 3.44574 9.28369 3.41744 9.2154C3.38913 9.14712 3.37456 9.07392 3.37456 9C3.37456 8.92608 3.38913 8.85288 3.41744 8.7846C3.44574 8.71631 3.48723 8.65427 3.53953 8.60203L6.35203 5.78953C6.45758 5.68398 6.60073 5.62469 6.75 5.62469C6.89927 5.62469 7.04242 5.68398 7.14797 5.78953C7.25352 5.89508 7.31281 6.03823 7.31281 6.1875C7.31281 6.33677 7.25352 6.47992 7.14797 6.58547L4.73273 9L7.14797 11.4145ZM14.4605 9.39797L11.648 12.2105C11.5424 12.316 11.3993 12.3753 11.25 12.3753C11.1007 12.3753 10.9576 12.316 10.852 12.2105C10.7465 12.1049 10.6872 11.9618 10.6872 11.8125C10.6872 11.6632 10.7465 11.5201 10.852 11.4145L13.2673 9L10.852 6.58547C10.7465 6.47992 10.6872 6.33677 10.6872 6.1875C10.6872 6.03823 10.7465 5.89508 10.852 5.78953C10.9576 5.68398 11.1007 5.62469 11.25 5.62469C11.3993 5.62469 11.5424 5.68398 11.648 5.78953L14.4605 8.60203C14.5128 8.65427 14.5543 8.71631 14.5826 8.7846C14.6109 8.85288 14.6254 8.92608 14.6254 9C14.6254 9.07392 14.6109 9.14712 14.5826 9.2154C14.5543 9.28369 14.5128 9.34573 14.4605 9.39797Z" fill="var(--fill-0, #18181B)" fill-opacity="0.16"/>
</g>
</svg>
