<svg preserveAspectRatio="none" width="100%" height="100%" overflow="visible" style="display: block;" viewBox="0 0 18 18" fill="none" xmlns="http://www.w3.org/2000/svg">
<g id="Frame">
<path id="Vector" d="M16.3125 15.75H14.625V2.25H15.1875C15.3367 2.25 15.4798 2.19074 15.5852 2.08525C15.6907 1.97976 15.75 1.83668 15.75 1.6875C15.75 1.53832 15.6907 1.39524 15.5852 1.28975C15.4798 1.18426 15.3367 1.125 15.1875 1.125H2.8125C2.66332 1.125 2.52024 1.18426 2.41475 1.28975C2.30926 1.39524 2.25 1.53832 2.25 1.6875C2.25 1.83668 2.30926 1.97976 2.41475 2.08525C2.52024 2.19074 2.66332 2.25 2.8125 2.25H3.375V15.75H1.6875C1.53832 15.75 1.39524 15.8093 1.28975 15.9148C1.18426 16.0202 1.125 16.1633 1.125 16.3125C1.125 16.4617 1.18426 16.6048 1.28975 16.7102C1.39524 16.8157 1.53832 16.875 1.6875 16.875H16.3125C16.4617 16.875 16.6048 16.8157 16.7102 16.7102C16.8157 16.6048 16.875 16.4617 16.875 16.3125C16.875 16.1633 16.8157 16.0202 16.7102 15.9148C16.6048 15.8093 16.4617 15.75 16.3125 15.75ZM6.1875 3.9375H7.875C8.02418 3.9375 8.16726 3.99676 8.27275 4.10225C8.37824 4.20774 8.4375 4.35082 8.4375 4.5C8.4375 4.64918 8.37824 4.79226 8.27275 4.89775C8.16726 5.00324 8.02418 5.0625 7.875 5.0625H6.1875C6.03832 5.0625 5.89524 5.00324 5.78975 4.89775C5.68426 4.79226 5.625 4.64918 5.625 4.5C5.625 4.35082 5.68426 4.20774 5.78975 4.10225C5.89524 3.99676 6.03832 3.9375 6.1875 3.9375ZM6.1875 6.75H7.875C8.02418 6.75 8.16726 6.80926 8.27275 6.91475C8.37824 7.02024 8.4375 7.16332 8.4375 7.3125C8.4375 7.46168 8.37824 7.60476 8.27275 7.71025C8.16726 7.81574 8.02418 7.875 7.875 7.875H6.1875C6.03832 7.875 5.89524 7.81574 5.78975 7.71025C5.68426 7.60476 5.625 7.46168 5.625 7.3125C5.625 7.16332 5.68426 7.02024 5.78975 6.91475C5.89524 6.80926 6.03832 6.75 6.1875 6.75ZM5.625 10.125C5.625 9.97582 5.68426 9.83274 5.78975 9.72725C5.89524 9.62176 6.03832 9.5625 6.1875 9.5625H7.875C8.02418 9.5625 8.16726 9.62176 8.27275 9.72725C8.37824 9.83274 8.4375 9.97582 8.4375 10.125C8.4375 10.2742 8.37824 10.4173 8.27275 10.5227C8.16726 10.6282 8.02418 10.6875 7.875 10.6875H6.1875C6.03832 10.6875 5.89524 10.6282 5.78975 10.5227C5.68426 10.4173 5.625 10.2742 5.625 10.125ZM10.6875 15.75H7.3125V12.9375H10.6875V15.75ZM11.8125 10.6875H10.125C9.97582 10.6875 9.83274 10.6282 9.72725 10.5227C9.62176 10.4173 9.5625 10.2742 9.5625 10.125C9.5625 9.97582 9.62176 9.83274 9.72725 9.72725C9.83274 9.62176 9.97582 9.5625 10.125 9.5625H11.8125C11.9617 9.5625 12.1048 9.62176 12.2102 9.72725C12.3157 9.83274 12.375 9.97582 12.375 10.125C12.375 10.2742 12.3157 10.4173 12.2102 10.5227C12.1048 10.6282 11.9617 10.6875 11.8125 10.6875ZM11.8125 7.875H10.125C9.97582 7.875 9.83274 7.81574 9.72725 7.71025C9.62176 7.60476 9.5625 7.46168 9.5625 7.3125C9.5625 7.16332 9.62176 7.02024 9.72725 6.91475C9.83274 6.80926 9.97582 6.75 10.125 6.75H11.8125C11.9617 6.75 12.1048 6.80926 12.2102 6.91475C12.3157 7.02024 12.375 7.16332 12.375 7.3125C12.375 7.46168 12.3157 7.60476 12.2102 7.71025C12.1048 7.81574 11.9617 7.875 11.8125 7.875ZM11.8125 5.0625H10.125C9.97582 5.0625 9.83274 5.00324 9.72725 4.89775C9.62176 4.79226 9.5625 4.64918 9.5625 4.5C9.5625 4.35082 9.62176 4.20774 9.72725 4.10225C9.83274 3.99676 9.97582 3.9375 10.125 3.9375H11.8125C11.9617 3.9375 12.1048 3.99676 12.2102 4.10225C12.3157 4.20774 12.375 4.35082 12.375 4.5C12.375 4.64918 12.3157 4.79226 12.2102 4.89775C12.1048 5.00324 11.9617 5.0625 11.8125 5.0625Z" fill="var(--fill-0, #18181B)" fill-opacity="0.48"/>
</g>
</svg>
