<svg preserveAspectRatio="none" width="100%" height="100%" overflow="visible" style="display: block;" viewBox="0 0 18 18" fill="none" xmlns="http://www.w3.org/2000/svg">
<g id="Frame">
<path id="Vector" d="M14.9063 14.0625C14.9063 14.432 14.8255 14.7969 14.6694 15.1318C14.5134 15.4667 14.286 15.7634 14.0031 16.001C13.7202 16.2387 13.3887 16.4115 13.0319 16.5074C12.6751 16.6032 12.3017 16.6198 11.9378 16.556C11.5739 16.4922 11.2283 16.3495 10.9255 16.1379C10.6226 15.9264 10.3697 15.6511 10.1845 15.3313C9.9994 15.0116 9.88648 14.6553 9.85372 14.2873C9.82096 13.9193 9.86916 13.5486 9.99492 13.2012L6.26836 10.807C5.91245 11.1561 5.46136 11.3924 4.97169 11.4861C4.48203 11.5798 3.97558 11.5269 3.5159 11.3339C3.05622 11.1409 2.66377 10.8164 2.38779 10.4012C2.11181 9.98601 1.96458 9.49856 1.96458 9C1.96458 8.50144 2.11181 8.01399 2.38779 7.59879C2.66377 7.18359 3.05622 6.85913 3.5159 6.66613C3.97558 6.47312 4.48203 6.42016 4.97169 6.51388C5.46136 6.60761 5.91245 6.84385 6.26836 7.19297L9.99492 4.80234C9.78153 4.21597 9.79167 3.57153 10.0234 2.99216C10.2551 2.41279 10.6922 1.93911 11.2511 1.66165C11.81 1.38418 12.4516 1.32237 13.0532 1.48804C13.6548 1.6537 14.1743 2.03522 14.5124 2.55969C14.8504 3.08416 14.9834 3.71482 14.8859 4.33115C14.7884 4.94747 14.4672 5.50626 13.9837 5.90073C13.5002 6.29521 12.8883 6.49771 12.265 6.46954C11.6416 6.44138 11.0505 6.18452 10.6045 5.74805L6.87797 8.14219C7.07937 8.69875 7.07937 9.30829 6.87797 9.86484L10.6045 12.259C10.9603 11.9108 11.4109 11.6752 11.8999 11.5818C12.3889 11.4883 12.8946 11.5412 13.3537 11.7336C13.8128 11.9261 14.205 12.2497 14.4811 12.664C14.7573 13.0782 14.9052 13.5647 14.9063 14.0625Z" fill="var(--fill-0, #18181B)" fill-opacity="0.16"/>
</g>
</svg>
