<svg preserveAspectRatio="none" width="100%" height="100%" overflow="visible" style="display: block;" viewBox="0 0 18 18" fill="none" xmlns="http://www.w3.org/2000/svg">
<g id="Frame">
<path id="Vector" d="M9 1.6875C7.55372 1.6875 6.13993 2.11637 4.93739 2.91988C3.73486 3.72339 2.7976 4.86544 2.24413 6.20163C1.69067 7.53781 1.54585 9.00811 1.82801 10.4266C2.11016 11.8451 2.80661 13.148 3.82928 14.1707C4.85195 15.1934 6.15492 15.8898 7.5734 16.172C8.99189 16.4541 10.4622 16.3093 11.7984 15.7559C13.1346 15.2024 14.2766 14.2651 15.0801 13.0626C15.8836 11.8601 16.3125 10.4463 16.3125 9C16.3105 7.06123 15.5394 5.20246 14.1685 3.83154C12.7975 2.46063 10.9388 1.68955 9 1.6875ZM9.84375 12.375H9.5625V12.9375C9.5625 13.0867 9.50324 13.2298 9.39775 13.3352C9.29226 13.4407 9.14918 13.5 9 13.5C8.85082 13.5 8.70774 13.4407 8.60225 13.3352C8.49676 13.2298 8.4375 13.0867 8.4375 12.9375V12.375H7.3125C7.16332 12.375 7.02024 12.3157 6.91475 12.2102C6.80926 12.1048 6.75 11.9617 6.75 11.8125C6.75 11.6633 6.80926 11.5202 6.91475 11.4148C7.02024 11.3093 7.16332 11.25 7.3125 11.25H9.84375C10.0675 11.25 10.2821 11.1611 10.4404 11.0029C10.5986 10.8446 10.6875 10.63 10.6875 10.4062C10.6875 10.1825 10.5986 9.96786 10.4404 9.80963C10.2821 9.6514 10.0675 9.5625 9.84375 9.5625H8.15625C7.63411 9.5625 7.13335 9.35508 6.76413 8.98587C6.39492 8.61665 6.1875 8.11589 6.1875 7.59375C6.1875 7.07161 6.39492 6.57085 6.76413 6.20163C7.13335 5.83242 7.63411 5.625 8.15625 5.625H8.4375V5.0625C8.4375 4.91332 8.49676 4.77024 8.60225 4.66475C8.70774 4.55926 8.85082 4.5 9 4.5C9.14918 4.5 9.29226 4.55926 9.39775 4.66475C9.50324 4.77024 9.5625 4.91332 9.5625 5.0625V5.625H10.6875C10.8367 5.625 10.9798 5.68426 11.0852 5.78975C11.1907 5.89524 11.25 6.03832 11.25 6.1875C11.25 6.33668 11.1907 6.47976 11.0852 6.58525C10.9798 6.69074 10.8367 6.75 10.6875 6.75H8.15625C7.93247 6.75 7.71786 6.83889 7.55963 6.99713C7.40139 7.15536 7.3125 7.36997 7.3125 7.59375C7.3125 7.81753 7.40139 8.03214 7.55963 8.19037C7.71786 8.34861 7.93247 8.4375 8.15625 8.4375H9.84375C10.3659 8.4375 10.8667 8.64492 11.2359 9.01413C11.6051 9.38335 11.8125 9.88411 11.8125 10.4062C11.8125 10.9284 11.6051 11.4292 11.2359 11.7984C10.8667 12.1676 10.3659 12.375 9.84375 12.375Z" fill="var(--fill-0, #18181B)" fill-opacity="0.16"/>
</g>
</svg>
