<svg preserveAspectRatio="none" width="100%" height="100%" overflow="visible" style="display: block;" viewBox="0 0 18 18" fill="none" xmlns="http://www.w3.org/2000/svg">
<g id="Frame">
<path id="Vector" d="M14.0625 1.6875H3.9375C3.63913 1.6875 3.35298 1.80603 3.142 2.017C2.93103 2.22798 2.8125 2.51413 2.8125 2.8125V15.1875C2.8125 15.4859 2.93103 15.772 3.142 15.983C3.35298 16.194 3.63913 16.3125 3.9375 16.3125H14.0625C14.3609 16.3125 14.647 16.194 14.858 15.983C15.069 15.772 15.1875 15.4859 15.1875 15.1875V2.8125C15.1875 2.51413 15.069 2.22798 14.858 2.017C14.647 1.80603 14.3609 1.6875 14.0625 1.6875ZM6.75 3.375H11.25C11.3992 3.375 11.5423 3.43426 11.6477 3.53975C11.7532 3.64524 11.8125 3.78832 11.8125 3.9375C11.8125 4.08668 11.7532 4.22976 11.6477 4.33525C11.5423 4.44074 11.3992 4.5 11.25 4.5H6.75C6.60082 4.5 6.45774 4.44074 6.35225 4.33525C6.24676 4.22976 6.1875 4.08668 6.1875 3.9375C6.1875 3.78832 6.24676 3.64524 6.35225 3.53975C6.45774 3.43426 6.60082 3.375 6.75 3.375ZM12.7132 13.95C12.6541 13.9944 12.5868 14.0268 12.5152 14.0452C12.4435 14.0636 12.369 14.0676 12.2958 14.0572C12.2226 14.0467 12.1521 14.022 12.0885 13.9843C12.0249 13.9466 11.9693 13.8967 11.925 13.8375C11.5844 13.3834 11.1428 13.0148 10.6351 12.761C10.1274 12.5072 9.56761 12.375 9 12.375C8.43239 12.375 7.87257 12.5072 7.36488 12.761C6.85719 13.0148 6.41557 13.3834 6.075 13.8375C6.03068 13.8966 5.97515 13.9464 5.91159 13.984C5.84803 14.0217 5.77768 14.0464 5.70455 14.0568C5.63142 14.0673 5.55696 14.0632 5.4854 14.0449C5.41384 14.0266 5.34659 13.9943 5.2875 13.95C5.2284 13.9057 5.17862 13.8502 5.14098 13.7866C5.10335 13.723 5.0786 13.6527 5.06815 13.5796C5.05771 13.5064 5.06177 13.432 5.0801 13.3604C5.09843 13.2888 5.13068 13.2216 5.175 13.1625C5.67308 12.4947 6.33728 11.9689 7.10156 11.6374C6.68272 11.255 6.38927 10.7549 6.25973 10.2028C6.1302 9.6506 6.17062 9.07218 6.37569 8.54341C6.58077 8.01463 6.94092 7.56021 7.40888 7.23978C7.87684 6.91935 8.43074 6.74788 8.99789 6.74788C9.56504 6.74788 10.1189 6.91935 10.5869 7.23978C11.0549 7.56021 11.415 8.01463 11.6201 8.54341C11.8252 9.07218 11.8656 9.6506 11.736 10.2028C11.6065 10.7549 11.3131 11.255 10.8942 11.6374C11.66 11.9683 12.3258 12.4941 12.825 13.1625C12.9146 13.2818 12.9531 13.4317 12.9322 13.5794C12.9112 13.7271 12.8324 13.8604 12.7132 13.95ZM10.6875 9.5625C10.6875 9.89626 10.5885 10.2225 10.4031 10.5C10.2177 10.7775 9.95413 10.9938 9.64578 11.1215C9.33743 11.2493 8.99813 11.2827 8.67079 11.2176C8.34344 11.1525 8.04276 10.9917 7.80676 10.7557C7.57076 10.5197 7.41004 10.2191 7.34492 9.89172C7.27981 9.56437 7.31323 9.22507 7.44095 8.91672C7.56868 8.60837 7.78497 8.34482 8.06248 8.1594C8.33998 7.97397 8.66624 7.875 9 7.875C9.44755 7.875 9.87678 8.05279 10.1932 8.36926C10.5097 8.68572 10.6875 9.11495 10.6875 9.5625Z" fill="var(--fill-0, #18181B)" fill-opacity="0.16"/>
</g>
</svg>
