<svg preserveAspectRatio="none" width="100%" height="100%" overflow="visible" style="display: block;" viewBox="0 0 18 18" fill="none" xmlns="http://www.w3.org/2000/svg">
<g id="Frame">
<path id="Vector" d="M11.5643 13.7552C11.6196 13.8401 11.651 13.9383 11.6552 14.0396C11.6593 14.1408 11.636 14.2413 11.5877 14.3304C11.5395 14.4195 11.4681 14.4939 11.381 14.5458C11.294 14.5976 11.1945 14.625 11.0932 14.625H0.719297C0.617974 14.625 0.518535 14.5976 0.431487 14.5458C0.344438 14.4939 0.273013 14.4195 0.224757 14.3304C0.176501 14.2413 0.153205 14.1408 0.157332 14.0396C0.161459 13.9383 0.192855 13.8401 0.248203 13.7552C1.04 12.5365 2.20464 11.6064 3.56836 11.1037C2.81447 10.6019 2.24211 9.87067 1.93591 9.01832C1.62972 8.16597 1.60595 7.23771 1.86813 6.37081C2.1303 5.5039 2.66449 4.74439 3.39171 4.20457C4.11893 3.66475 5.00057 3.37329 5.90625 3.37329C6.81193 3.37329 7.69357 3.66475 8.42079 4.20457C9.14801 4.74439 9.6822 5.5039 9.94437 6.37081C10.2065 7.23771 10.1828 8.16597 9.87659 9.01832C9.5704 9.87067 8.99803 10.6019 8.24414 11.1037C9.60786 11.6064 10.7725 12.5365 11.5643 13.7552ZM17.7455 13.7447C16.9535 12.531 15.7914 11.605 14.4316 11.1037C15.3216 10.5042 15.9497 9.58809 16.1881 8.54181C16.4264 7.49552 16.2571 6.39772 15.7146 5.47188C15.172 4.54603 14.2971 3.86173 13.2678 3.55825C12.2385 3.25478 11.1323 3.35494 10.1742 3.83836C10.1376 3.85727 10.1056 3.88401 10.0804 3.91668C10.0553 3.94935 10.0376 3.98715 10.0287 4.0274C10.0197 4.06765 10.0198 4.10937 10.0288 4.14961C10.0378 4.18984 10.0555 4.22761 10.0807 4.26023C10.7931 5.14885 11.2022 6.24223 11.2481 7.38022C11.2941 8.51821 10.9744 9.641 10.3359 10.5841C10.2947 10.6458 10.2794 10.7212 10.2935 10.794C10.3076 10.8669 10.3499 10.9312 10.4112 10.973C11.2436 11.5539 11.9562 12.29 12.51 13.1407C12.7333 13.4827 12.8246 13.8944 12.7666 14.2987C12.7601 14.339 12.7624 14.3801 12.7734 14.4194C12.7843 14.4586 12.8037 14.495 12.8301 14.5261C12.8565 14.5571 12.8894 14.582 12.9264 14.5991C12.9634 14.6162 13.0036 14.625 13.0444 14.625H17.2842C17.4081 14.625 17.5285 14.5842 17.6268 14.5088C17.725 14.4334 17.7957 14.3277 17.8277 14.208C17.8473 14.1294 17.8501 14.0474 17.8359 13.9676C17.8217 13.8878 17.7909 13.8118 17.7455 13.7447Z" fill="var(--fill-0, #18181B)" fill-opacity="0.48"/>
</g>
</svg>
