<svg preserveAspectRatio="none" width="100%" height="100%" overflow="visible" style="display: block;" viewBox="0 0 16 16" fill="none" xmlns="http://www.w3.org/2000/svg">
<g id="fluent:archive-16-filled">
<path id="Vector" d="M1 3C1 2.73478 1.10536 2.48043 1.29289 2.29289C1.48043 2.10536 1.73478 2 2 2H14C14.2652 2 14.5196 2.10536 14.7071 2.29289C14.8946 2.48043 15 2.73478 15 3V4C15 4.26522 14.8946 4.51957 14.7071 4.70711C14.5196 4.89464 14.2652 5 14 5H2C1.73478 5 1.48043 4.89464 1.29289 4.70711C1.10536 4.51957 1 4.26522 1 4V3ZM2 6H14V11.5C14 12.163 13.7366 12.7989 13.2678 13.2678C12.7989 13.7366 12.163 14 11.5 14H4.5C3.83696 14 3.20107 13.7366 2.73223 13.2678C2.26339 12.7989 2 12.163 2 11.5V6ZM6.5 8C6.36739 8 6.24021 8.05268 6.14645 8.14645C6.05268 8.24021 6 8.36739 6 8.5C6 8.63261 6.05268 8.75979 6.14645 8.85355C6.24021 8.94732 6.36739 9 6.5 9H9.5C9.63261 9 9.75979 8.94732 9.85355 8.85355C9.94732 8.75979 10 8.63261 10 8.5C10 8.36739 9.94732 8.24021 9.85355 8.14645C9.75979 8.05268 9.63261 8 9.5 8H6.5Z" fill="var(--fill-0, #A1A1AA)"/>
</g>
</svg>
