<svg preserveAspectRatio="none" width="100%" height="100%" overflow="visible" style="display: block;" viewBox="0 0 18 18" fill="none" xmlns="http://www.w3.org/2000/svg">
<g id="Frame">
<path id="Vector" d="M16.2907 6.59602L15.2824 3.06562C15.2146 2.83142 15.0728 2.62544 14.8783 2.47844C14.6838 2.33144 14.4469 2.2513 14.2031 2.25H3.79688C3.55306 2.2513 3.3162 2.33144 3.12168 2.47844C2.92715 2.62544 2.7854 2.83142 2.71758 3.06562L1.7093 6.59602C1.69488 6.64608 1.68755 6.69791 1.6875 6.75V7.875C1.6875 8.31163 1.78916 8.74226 1.98442 9.13279C2.17969 9.52332 2.4632 9.86302 2.8125 10.125V15.1875C2.8125 15.3367 2.87176 15.4798 2.97725 15.5852C3.08274 15.6907 3.22582 15.75 3.375 15.75H14.625C14.7742 15.75 14.9173 15.6907 15.0227 15.5852C15.1282 15.4798 15.1875 15.3367 15.1875 15.1875V10.125C15.5368 9.86302 15.8203 9.52332 16.0156 9.13279C16.2108 8.74226 16.3125 8.31163 16.3125 7.875V6.75C16.3125 6.69791 16.3051 6.64608 16.2907 6.59602ZM6.1875 7.875C6.1874 8.16518 6.11247 8.45044 5.96995 8.70321C5.82743 8.95598 5.62213 9.16773 5.37389 9.31801C5.12565 9.46828 4.84285 9.552 4.5528 9.56108C4.26276 9.57016 3.97528 9.5043 3.71813 9.36984C3.679 9.33939 3.63596 9.31432 3.59016 9.29531C3.35185 9.14275 3.15573 8.93272 3.01984 8.68453C2.88395 8.43633 2.81265 8.15796 2.8125 7.875V7.3125H6.1875V7.875ZM10.6875 7.875C10.6875 8.32255 10.5097 8.75178 10.1932 9.06824C9.87678 9.38471 9.44755 9.5625 9 9.5625C8.55245 9.5625 8.12322 9.38471 7.80676 9.06824C7.49029 8.75178 7.3125 8.32255 7.3125 7.875V7.3125H10.6875V7.875ZM15.1875 7.875C15.1873 8.15802 15.1159 8.43644 14.9799 8.68464C14.8438 8.93283 14.6476 9.14283 14.4091 9.29531C14.3639 9.31436 14.3214 9.33917 14.2826 9.36914C14.0255 9.50373 13.738 9.56973 13.4479 9.56077C13.1578 9.5518 12.8749 9.46818 12.6266 9.31796C12.3783 9.16775 12.1729 8.95604 12.0303 8.70327C11.8877 8.4505 11.8127 8.16522 11.8125 7.875V7.3125H15.1875V7.875Z" fill="var(--fill-0, #18181B)" fill-opacity="0.36"/>
</g>
</svg>
