<svg preserveAspectRatio="none" width="100%" height="100%" overflow="visible" style="display: block;" viewBox="0 0 18 18" fill="none" xmlns="http://www.w3.org/2000/svg">
<g id="Frame">
<path id="Vector" d="M16.4735 8.07539L13.3095 10.8056L14.2734 14.8887C14.3266 15.1103 14.3129 15.3428 14.2341 15.5566C14.1552 15.7705 14.0148 15.9562 13.8304 16.0903C13.6461 16.2244 13.4261 16.3008 13.1984 16.3099C12.9706 16.3191 12.7453 16.2605 12.5508 16.1416L9 13.9563L5.44711 16.1416C5.25264 16.2598 5.02756 16.3178 4.80019 16.3084C4.57283 16.2989 4.35335 16.2223 4.16939 16.0884C3.98544 15.9544 3.84523 15.769 3.76643 15.5555C3.68763 15.3421 3.67376 15.11 3.72656 14.8887L4.69406 10.8056L1.53 8.07539C1.35794 7.92669 1.23351 7.73059 1.17224 7.51159C1.11097 7.29259 1.11557 7.06039 1.18548 6.84399C1.25539 6.62759 1.3875 6.43658 1.56532 6.29481C1.74313 6.15305 1.95878 6.06681 2.18531 6.04687L6.33375 5.71219L7.93406 1.83937C8.02068 1.62831 8.16811 1.44777 8.3576 1.32071C8.5471 1.19364 8.77009 1.1258 8.99824 1.1258C9.22639 1.1258 9.44939 1.19364 9.63888 1.32071C9.82837 1.44777 9.9758 1.62831 10.0624 1.83937L11.662 5.71219L15.8105 6.04687C16.0375 6.06607 16.2537 6.15183 16.4322 6.29339C16.6107 6.43496 16.7434 6.62605 16.8137 6.84271C16.8841 7.05937 16.8889 7.29198 16.8276 7.51138C16.7664 7.73078 16.6417 7.92722 16.4693 8.07609L16.4735 8.07539Z" fill="var(--fill-0, #18181B)" fill-opacity="0.36"/>
</g>
</svg>
