<svg width="16" height="16" viewBox="0 0 16 16" fill="none" xmlns="http://www.w3.org/2000/svg">
<path d="M8.46973 2.96967C8.76262 2.67678 9.23738 2.67678 9.53027 2.96967L14.0303 7.46967C14.0614 7.50084 14.0888 7.53442 14.1133 7.56928C14.1446 7.61386 14.1712 7.66184 14.1924 7.71283C14.2131 7.76284 14.2279 7.81453 14.2373 7.86713C14.245 7.91023 14.25 7.95463 14.25 7.99994C14.25 8.04538 14.2441 8.08954 14.2363 8.13276C14.2355 8.13729 14.2353 8.14191 14.2344 8.14643C14.2304 8.1662 14.2232 8.18487 14.2178 8.20404C14.21 8.23156 14.2034 8.25942 14.1924 8.28608C14.1713 8.33703 14.1436 8.38409 14.1123 8.42865C14.0876 8.46376 14.0617 8.49884 14.0303 8.53022L9.53027 13.0302C9.2374 13.323 8.7626 13.323 8.46973 13.0302C8.17686 12.7374 8.17693 12.2626 8.46973 11.9697L11.6895 8.74994H2.5C2.08585 8.74994 1.7501 8.41407 1.75 7.99994C1.75 7.58573 2.08579 7.24994 2.5 7.24994H11.6895L8.46973 4.03022C8.17686 3.73736 8.17693 3.26257 8.46973 2.96967Z" fill="white"/>
</svg>
