<svg width="22" height="22" viewBox="0 0 17.8747 17.8748" fill="none" xmlns="http://www.w3.org/2000/svg">
<path d="M8.93721 0C11.3067 0.00250227 13.579 0.944647 15.2546 2.62012C16.9302 4.29568 17.8722 6.5679 17.8747 8.9375C17.8747 10.7052 17.3509 12.4336 16.3689 13.9033C15.3869 15.3728 13.991 16.5179 12.3581 17.1943C10.725 17.8708 8.92772 18.0479 7.19405 17.7031C5.46034 17.3583 3.86781 16.5068 2.61788 15.2568C1.36803 14.0069 0.516431 12.4143 0.171589 10.6807C-0.173123 8.94719 0.00406759 7.15048 0.680378 5.51758C1.35684 3.88446 2.50261 2.48792 3.97237 1.50586C5.44197 0.524004 7.16979 5.94916e-05 8.93721 0ZM12.3747 6.1875C12.2846 6.18754 12.1953 6.20481 12.112 6.23926C12.0286 6.27383 11.9523 6.3248 11.8884 6.38867L7.56221 10.7158L5.98604 9.13867C5.85705 9.00976 5.68208 8.9375 5.49971 8.9375C5.31739 8.93758 5.14232 9.00974 5.01339 9.13867C4.88448 9.26766 4.81221 9.44263 4.81221 9.625C4.81221 9.80737 4.88448 9.98234 5.01339 10.1113L7.07589 12.1738C7.13974 12.2377 7.21606 12.2886 7.29952 12.3232C7.38281 12.3577 7.47207 12.3759 7.56221 12.376C7.65256 12.376 7.74242 12.3578 7.82589 12.3232C7.90926 12.2887 7.98474 12.2377 8.04854 12.1738L12.861 7.36133C12.9248 7.29755 12.9759 7.22197 13.0105 7.13867C13.045 7.05521 13.0632 6.96533 13.0632 6.875C13.0632 6.78467 13.045 6.69479 13.0105 6.61133C12.9759 6.52803 12.9248 6.45245 12.861 6.38867C12.7972 6.32488 12.7218 6.2738 12.6384 6.23926C12.5549 6.20469 12.465 6.1875 12.3747 6.1875Z" fill="#1FA24E"/>
</svg>
