<svg preserveAspectRatio="none" width="100%" height="100%" overflow="visible" style="display: block;" viewBox="0 0 18 18" fill="none" xmlns="http://www.w3.org/2000/svg">
<g id="Frame">
<path id="Vector" d="M9 1.6875C7.73752 1.68722 6.49647 2.01381 5.39765 2.63547C4.29883 3.25714 3.37967 4.15269 2.72965 5.23498C2.07963 6.31726 1.72089 7.5494 1.68834 8.81146C1.65578 10.0735 1.95054 11.3225 2.54391 12.4369L1.74586 14.831C1.67975 15.0292 1.67016 15.242 1.71815 15.4453C1.76615 15.6487 1.86983 15.8347 2.01758 15.9824C2.16533 16.1302 2.35132 16.2339 2.55468 16.2818C2.75805 16.3298 2.97076 16.3202 3.16898 16.2541L5.56313 15.4561C6.54382 15.9777 7.63046 16.269 8.74057 16.308C9.85067 16.347 10.9551 16.1325 11.9699 15.6809C12.9848 15.2293 13.8834 14.5525 14.5976 13.7017C15.3118 12.851 15.8228 11.8487 16.0918 10.771C16.3608 9.69326 16.3808 8.56842 16.1502 7.48184C15.9196 6.39525 15.4444 5.37549 14.7609 4.49994C14.0773 3.6244 13.2032 2.91608 12.2051 2.42877C11.2069 1.94146 10.1108 1.68796 9 1.6875ZM9 15.1875C7.91225 15.1882 6.84358 14.9018 5.90203 14.3571C5.83309 14.3171 5.75645 14.2923 5.67717 14.2841C5.5979 14.276 5.5178 14.2848 5.44219 14.31L2.8125 15.1875L3.6893 12.5578C3.71457 12.4822 3.7235 12.4022 3.7155 12.3229C3.7075 12.2436 3.68275 12.167 3.64289 12.098C2.96084 10.9188 2.687 9.54744 2.86385 8.19672C3.0407 6.846 3.65835 5.5914 4.621 4.62754C5.58364 3.66368 6.83746 3.04444 8.18796 2.86588C9.53845 2.68733 10.9101 2.95944 12.0902 3.64C13.2702 4.32056 14.1927 5.37153 14.7145 6.62987C15.2364 7.88822 15.3283 9.28359 14.9762 10.5995C14.624 11.9155 13.8474 13.0784 12.7669 13.908C11.6863 14.7375 10.3622 15.1873 9 15.1875Z" fill="var(--fill-0, #18181B)" fill-opacity="0.48"/>
</g>
</svg>
