<svg preserveAspectRatio="none" width="100%" height="100%" overflow="visible" style="display: block;" viewBox="0 0 20 20" fill="none" xmlns="http://www.w3.org/2000/svg">
<g id="Frame">
<path id="Vector" d="M18.0781 3.46406C18.0781 3.46406 18.0781 3.47188 18.0781 3.47578L13.5312 18.4711C13.4624 18.7147 13.3208 18.9313 13.1253 19.0921C12.9298 19.2528 12.6898 19.3499 12.4375 19.3703C12.4016 19.3734 12.3656 19.375 12.3297 19.375C12.0933 19.3757 11.8616 19.3088 11.662 19.1822C11.4624 19.0555 11.3031 18.8744 11.2031 18.6602L8.35938 12.8242C8.33092 12.7657 8.32142 12.6998 8.33221 12.6357C8.34299 12.5715 8.37352 12.5124 8.41953 12.4664L12.9445 7.94141C13.0568 7.82324 13.1185 7.6659 13.1164 7.50292C13.1143 7.33995 13.0486 7.18423 12.9334 7.06898C12.8181 6.95373 12.6624 6.88806 12.4994 6.88598C12.3364 6.88389 12.1791 6.94555 12.0609 7.05781L7.53359 11.5828C7.48763 11.6288 7.42845 11.6594 7.36431 11.6701C7.30017 11.6809 7.23427 11.6714 7.17578 11.643L1.33437 8.8C1.10595 8.69041 0.916222 8.514 0.790326 8.29415C0.664429 8.0743 0.60831 7.82138 0.629406 7.56891C0.650501 7.31644 0.747816 7.07634 0.908452 6.88042C1.06909 6.68451 1.28547 6.54203 1.52891 6.47187L16.5242 1.925H16.5359C16.7494 1.86502 16.9751 1.86291 17.1896 1.91891C17.4042 1.9749 17.6 2.08697 17.757 2.24363C17.914 2.40028 18.0265 2.59588 18.0829 2.81035C18.1393 3.02482 18.1377 3.25044 18.0781 3.46406Z" fill="var(--fill-0, #18181B)" fill-opacity="0.28"/>
</g>
</svg>
