<svg preserveAspectRatio="none" width="100%" height="100%" overflow="visible" style="display: block;" viewBox="0 0 18 18" fill="none" xmlns="http://www.w3.org/2000/svg">
<g id="Frame">
<path id="Vector" d="M9.84375 9C9.84375 9.16688 9.79426 9.33001 9.70155 9.46876C9.60884 9.60752 9.47706 9.71566 9.32289 9.77952C9.16871 9.84338 8.99906 9.86009 8.83539 9.82754C8.67172 9.79498 8.52138 9.71462 8.40338 9.59662C8.28538 9.47862 8.20502 9.32828 8.17246 9.16461C8.13991 9.00094 8.15661 8.83129 8.22048 8.67711C8.28434 8.52294 8.39248 8.39116 8.53124 8.29845C8.66999 8.20573 8.83312 8.15625 9 8.15625C9.22378 8.15625 9.43839 8.24514 9.59662 8.40338C9.75485 8.56161 9.84375 8.77622 9.84375 9ZM9 5.0625C9.16688 5.0625 9.33001 5.01302 9.46876 4.9203C9.60752 4.82759 9.71566 4.69581 9.77952 4.54164C9.84338 4.38746 9.86009 4.21781 9.82754 4.05414C9.79498 3.89047 9.71462 3.74013 9.59662 3.62213C9.47862 3.50413 9.32828 3.42377 9.16461 3.39121C9.00094 3.35866 8.83129 3.37537 8.67711 3.43923C8.52294 3.50309 8.39116 3.61123 8.29845 3.74999C8.20573 3.88874 8.15625 4.05187 8.15625 4.21875C8.15625 4.44253 8.24514 4.65714 8.40338 4.81537C8.56161 4.97361 8.77622 5.0625 9 5.0625ZM9 12.9375C8.83312 12.9375 8.66999 12.987 8.53124 13.0797C8.39248 13.1724 8.28434 13.3042 8.22048 13.4584C8.15661 13.6125 8.13991 13.7822 8.17246 13.9459C8.20502 14.1095 8.28538 14.2599 8.40338 14.3779C8.52138 14.4959 8.67172 14.5762 8.83539 14.6088C8.99906 14.6413 9.16871 14.6246 9.32289 14.5608C9.47706 14.4969 9.60884 14.3888 9.70155 14.25C9.79426 14.1113 9.84375 13.9481 9.84375 13.7812C9.84375 13.5575 9.75485 13.3429 9.59662 13.1846C9.43839 13.0264 9.22378 12.9375 9 12.9375Z" fill="var(--fill-0, #18181B)"/>
</g>
</svg>
