<svg preserveAspectRatio="none" width="100%" height="100%" overflow="visible" style="display: block;" viewBox="0 0 18 18" fill="none" xmlns="http://www.w3.org/2000/svg">
<g id="Frame">
<path id="Vector" d="M16.875 7.17188C16.875 12.0938 9.57727 16.0777 9.26648 16.2422C9.18457 16.2863 9.09301 16.3093 9 16.3093C8.90699 16.3093 8.81543 16.2863 8.73352 16.2422C8.42273 16.0777 1.125 12.0938 1.125 7.17188C1.1263 6.0161 1.58601 4.90803 2.40327 4.09077C3.22053 3.27351 4.3286 2.8138 5.48438 2.8125C6.93633 2.8125 8.20758 3.43687 9 4.49227C9.79242 3.43687 11.0637 2.8125 12.5156 2.8125C13.6714 2.8138 14.7795 3.27351 15.5967 4.09077C16.414 4.90803 16.8737 6.0161 16.875 7.17188Z" fill="var(--fill-0, #F5475C)"/>
</g>
</svg>
