<svg preserveAspectRatio="none" width="100%" height="100%" overflow="visible" style="display: block;" viewBox="0 0 100 74.3369" fill="none" xmlns="http://www.w3.org/2000/svg">
<g id="Frame 1948758816">
<path id="Rectangle 40" d="M0 8C0 3.58172 3.58172 0 8 0L92 0C96.4183 0 100 3.58172 100 8V14C100 16.2091 98.2091 18 96 18H4C1.79086 18 0 16.2091 0 14L0 8Z" fill="var(--fill-0, #A1A1AA)"/>
<path id="Subtract" d="M89.4414 67.9844C89.0189 71.6059 85.9508 74.3369 82.3047 74.3369H17.6953C14.0493 74.3367 10.9811 71.6059 10.5586 67.9844L5 20.3369H95L89.4414 67.9844ZM35.5928 29.3369C33.6086 29.3369 32 30.9534 32 32.9375C32.0002 34.9215 33.6088 36.5371 35.5928 36.5371H64.4072C66.3912 36.5371 67.9998 34.9215 68 32.9375C68 30.9534 66.3914 29.3369 64.4072 29.3369H35.5928Z" fill="var(--fill-0, #D4D4D8)"/>
</g>
</svg>
