<svg width="32" height="32" viewBox="0 0 32 32" fill="none" xmlns="http://www.w3.org/2000/svg">
<path d="M23.9683 18.2077C23.4614 19.8626 22.4457 21.3155 21.0655 22.3596C19.8538 23.2718 18.4119 23.8281 16.9016 23.9661C15.3913 24.1042 13.8725 23.8185 12.5155 23.1411C11.1586 22.4637 10.0172 21.4214 9.21962 20.1312C8.422 18.841 7.99967 17.354 8.00004 15.8371C7.99459 14.0666 8.57004 12.3431 9.63813 10.9312C10.682 9.55074 12.1345 8.53475 13.7891 8.0278C13.8981 7.99421 14.0142 7.991 14.125 8.0185C14.2357 8.04599 14.3369 8.10317 14.4175 8.18387C14.4982 8.26457 14.5554 8.36574 14.5829 8.4765C14.6104 8.58726 14.6072 8.70343 14.5736 8.8125C14.2118 10.0095 14.1815 11.2823 14.4858 12.4951C14.7902 13.708 15.4178 14.8156 16.3019 15.6999C17.1859 16.5841 18.2932 17.2119 19.5058 17.5163C20.7185 17.8207 21.9909 17.7904 23.1877 17.4285C23.2967 17.3949 23.4129 17.3917 23.5236 17.4192C23.6343 17.4467 23.7355 17.5039 23.8162 17.5846C23.8969 17.6653 23.954 17.7664 23.9815 17.8772C24.009 17.988 24.0058 18.1041 23.9722 18.2132L23.9683 18.2077Z" fill="#18181B" fill-opacity="0.36"/>
</svg>
