<svg width="32" height="32" viewBox="0 0 32 32" fill="none" xmlns="http://www.w3.org/2000/svg">
<path d="M19.6259 24.3462C19.6259 24.5196 19.5601 24.6859 19.4428 24.8085C19.3256 24.9311 19.1666 25 19.0008 25H14C13.8342 25 13.6752 24.9311 13.5579 24.8085C13.4407 24.6859 13.3749 24.5196 13.3749 24.3462C13.3749 24.1727 13.4407 24.0064 13.5579 23.8838C13.6752 23.7612 13.8342 23.6923 14 23.6923H19.0008C19.1666 23.6923 19.3256 23.7612 19.4428 23.8838C19.5601 24.0064 19.6259 24.1727 19.6259 24.3462ZM23.8306 20.4182C23.3961 19.6368 22.7515 17.426 22.7515 14.5385C22.7515 12.8044 22.0929 11.1413 20.9206 9.91507C19.7483 8.68887 18.1583 8 16.5004 8C14.8425 8 13.2525 8.68887 12.0802 9.91507C10.9079 11.1413 10.2493 12.8044 10.2493 14.5385C10.2493 17.4268 9.60389 19.6368 9.17022 20.4182C9.05947 20.6168 9.00076 20.8425 9.00001 21.0724C8.99925 21.3024 9.05648 21.5285 9.16592 21.7279C9.27536 21.9273 9.43314 22.0931 9.62335 22.2084C9.81356 22.3237 10.0295 22.3844 10.2493 22.3846H22.7515C22.9712 22.3843 23.1871 22.3234 23.3772 22.208C23.5673 22.0927 23.7249 21.927 23.8343 21.7275C23.9436 21.5281 24.0008 21.3021 24 21.0722C23.9992 20.8424 23.9405 20.6168 23.8298 20.4182H23.8306Z" fill="#18181B" fill-opacity="0.36"/>
</svg>
