<svg preserveAspectRatio="none" width="100%" height="100%" overflow="visible" style="display: block;" viewBox="0 0 18 18" fill="none" xmlns="http://www.w3.org/2000/svg">
<g id="Frame">
<path id="Vector" d="M16.3125 6.1875V14.1251C16.3121 14.4067 16.2001 14.6768 16.0009 14.8759C15.8018 15.0751 15.5317 15.1871 15.2501 15.1875H2.8125C2.51413 15.1875 2.22798 15.069 2.017 14.858C1.80603 14.647 1.6875 14.3609 1.6875 14.0625V4.5C1.6875 4.20163 1.80603 3.91548 2.017 3.7045C2.22798 3.49353 2.51413 3.375 2.8125 3.375H6.56227C6.80558 3.3756 7.04225 3.45449 7.23727 3.6L9.18773 5.0625H15.1875C15.4859 5.0625 15.772 5.18103 15.983 5.39201C16.194 5.60298 16.3125 5.88913 16.3125 6.1875Z" fill="var(--fill-0, #6D319D)"/>
</g>
</svg>
