<svg preserveAspectRatio="none" width="100%" height="100%" overflow="visible" style="display: block;" viewBox="0 0 18 18" fill="none" xmlns="http://www.w3.org/2000/svg">
<g id="Frame">
<path id="Vector" d="M9 1.6875C7.55372 1.6875 6.13993 2.11637 4.93739 2.91988C3.73486 3.72339 2.7976 4.86544 2.24413 6.20163C1.69067 7.53781 1.54585 9.00811 1.82801 10.4266C2.11016 11.8451 2.80661 13.148 3.82928 14.1707C4.85195 15.1934 6.15492 15.8898 7.5734 16.172C8.99189 16.4541 10.4622 16.3093 11.7984 15.7559C13.1346 15.2024 14.2766 14.2651 15.0801 13.0626C15.8836 11.8601 16.3125 10.4463 16.3125 9C16.3105 7.06123 15.5394 5.20246 14.1685 3.83154C12.7975 2.46063 10.9388 1.68955 9 1.6875ZM9 13.5C8.83312 13.5 8.66999 13.4505 8.53124 13.3578C8.39248 13.2651 8.28434 13.1333 8.22048 12.9791C8.15662 12.825 8.13991 12.6553 8.17246 12.4916C8.20502 12.328 8.28538 12.1776 8.40338 12.0596C8.52138 11.9416 8.67172 11.8613 8.83539 11.8287C8.99906 11.7962 9.16871 11.8129 9.32289 11.8767C9.47706 11.9406 9.60884 12.0487 9.70155 12.1875C9.79426 12.3262 9.84375 12.4894 9.84375 12.6562C9.84375 12.88 9.75485 13.0946 9.59662 13.2529C9.43839 13.4111 9.22378 13.5 9 13.5ZM9.5625 10.0744V10.125C9.5625 10.2742 9.50324 10.4173 9.39775 10.5227C9.29226 10.6282 9.14918 10.6875 9 10.6875C8.85082 10.6875 8.70774 10.6282 8.60225 10.5227C8.49676 10.4173 8.4375 10.2742 8.4375 10.125V9.5625C8.4375 9.41332 8.49676 9.27024 8.60225 9.16475C8.70774 9.05926 8.85082 9 9 9C9.93023 9 10.6875 8.36719 10.6875 7.59375C10.6875 6.82031 9.93023 6.1875 9 6.1875C8.06977 6.1875 7.3125 6.82031 7.3125 7.59375V7.875C7.3125 8.02418 7.25324 8.16726 7.14775 8.27275C7.04226 8.37824 6.89918 8.4375 6.75 8.4375C6.60082 8.4375 6.45774 8.37824 6.35225 8.27275C6.24676 8.16726 6.1875 8.02418 6.1875 7.875V7.59375C6.1875 6.19805 7.44891 5.0625 9 5.0625C10.5511 5.0625 11.8125 6.19805 11.8125 7.59375C11.8125 8.81578 10.845 9.83883 9.5625 10.0744Z" fill="var(--fill-0, #A1A1AA)"/>
</g>
</svg>
