<svg preserveAspectRatio="none" width="100%" height="100%" overflow="visible" style="display: block;" viewBox="0 0 18 18" fill="none" xmlns="http://www.w3.org/2000/svg">
<g id="Frame">
<path id="Vector" d="M15.1875 2.8125H2.8125C2.51413 2.8125 2.22798 2.93103 2.017 3.142C1.80603 3.35298 1.6875 3.63913 1.6875 3.9375V14.0625C1.6875 14.3609 1.80603 14.647 2.017 14.858C2.22798 15.069 2.51413 15.1875 2.8125 15.1875H15.1875C15.4859 15.1875 15.772 15.069 15.983 14.858C16.194 14.647 16.3125 14.3609 16.3125 14.0625V3.9375C16.3125 3.63913 16.194 3.35298 15.983 3.142C15.772 2.93103 15.4859 2.8125 15.1875 2.8125ZM14.0625 12.375C14.2117 12.375 14.3548 12.4343 14.4602 12.5398C14.5657 12.6452 14.625 12.7883 14.625 12.9375C14.625 13.0867 14.5657 13.2298 14.4602 13.3352C14.3548 13.4407 14.2117 13.5 14.0625 13.5H3.9375C3.78832 13.5 3.64524 13.4407 3.53975 13.3352C3.43426 13.2298 3.375 13.0867 3.375 12.9375V5.0625C3.375 4.91332 3.43426 4.77024 3.53975 4.66475C3.64524 4.55926 3.78832 4.5 3.9375 4.5C4.08668 4.5 4.22976 4.55926 4.33525 4.66475C4.44074 4.77024 4.5 4.91332 4.5 5.0625V9.48656L6.9525 7.44258C7.04569 7.36492 7.1615 7.31946 7.28264 7.313C7.40378 7.30654 7.52376 7.33941 7.62469 7.40672L10.6481 9.42398L13.7004 6.88008C13.8151 6.7846 13.963 6.73859 14.1116 6.75217C14.2602 6.76575 14.3973 6.83781 14.4928 6.9525C14.5883 7.06719 14.6343 7.2151 14.6207 7.36371C14.6071 7.51232 14.5351 7.64944 14.4204 7.74492L11.0454 10.5574C10.9522 10.6351 10.8364 10.6805 10.7153 10.687C10.5941 10.6935 10.4741 10.6606 10.3732 10.5933L7.34977 8.57602L4.5 10.9512V12.375H14.0625Z" fill="var(--fill-0, #18181B)" fill-opacity="0.36"/>
</g>
</svg>
