<svg preserveAspectRatio="none" width="100%" height="100%" overflow="visible" style="display: block;" viewBox="0 0 18 18" fill="none" xmlns="http://www.w3.org/2000/svg">
<g id="Frame">
<path id="Vector" d="M10.125 6.75V5.625H9C8.85082 5.625 8.70774 5.68426 8.60225 5.78975C8.49676 5.89524 8.4375 6.03832 8.4375 6.1875V11.8125C8.4375 11.9617 8.49676 12.1048 8.60225 12.2102C8.70774 12.3157 8.85082 12.375 9 12.375H10.125V11.25C10.125 10.9516 10.2435 10.6655 10.4545 10.4545C10.6655 10.2435 10.9516 10.125 11.25 10.125H14.625C14.9234 10.125 15.2095 10.2435 15.4205 10.4545C15.6315 10.6655 15.75 10.9516 15.75 11.25V14.625C15.75 14.9234 15.6315 15.2095 15.4205 15.4205C15.2095 15.6315 14.9234 15.75 14.625 15.75H11.25C10.9516 15.75 10.6655 15.6315 10.4545 15.4205C10.2435 15.2095 10.125 14.9234 10.125 14.625V13.5H9C8.55245 13.5 8.12322 13.3222 7.80676 13.0057C7.49029 12.6893 7.3125 12.2601 7.3125 11.8125V9.5625H5.0625V10.125C5.0625 10.4234 4.94397 10.7095 4.73299 10.9205C4.52202 11.1315 4.23587 11.25 3.9375 11.25H1.6875C1.38913 11.25 1.10298 11.1315 0.892005 10.9205C0.681026 10.7095 0.5625 10.4234 0.5625 10.125V7.875C0.5625 7.57663 0.681026 7.29048 0.892005 7.07951C1.10298 6.86853 1.38913 6.75 1.6875 6.75H3.9375C4.23587 6.75 4.52202 6.86853 4.73299 7.07951C4.94397 7.29048 5.0625 7.57663 5.0625 7.875V8.4375H7.3125V6.1875C7.3125 5.73995 7.49029 5.31072 7.80676 4.99426C8.12322 4.67779 8.55245 4.5 9 4.5H10.125V3.375C10.125 3.07663 10.2435 2.79048 10.4545 2.5795C10.6655 2.36853 10.9516 2.25 11.25 2.25H14.625C14.9234 2.25 15.2095 2.36853 15.4205 2.5795C15.6315 2.79048 15.75 3.07663 15.75 3.375V6.75C15.75 7.04837 15.6315 7.33452 15.4205 7.54549C15.2095 7.75647 14.9234 7.875 14.625 7.875H11.25C10.9516 7.875 10.6655 7.75647 10.4545 7.54549C10.2435 7.33452 10.125 7.04837 10.125 6.75Z" fill="var(--fill-0, #18181B)" fill-opacity="0.16"/>
</g>
</svg>
