<svg preserveAspectRatio="none" width="100%" height="100%" overflow="visible" style="display: block;" viewBox="0 0 18 18" fill="none" xmlns="http://www.w3.org/2000/svg">
<g id="Frame">
<path id="Vector" d="M9 1.6875C7.55372 1.6875 6.13993 2.11637 4.93739 2.91988C3.73486 3.72339 2.7976 4.86544 2.24413 6.20163C1.69067 7.53781 1.54585 9.00811 1.82801 10.4266C2.11016 11.8451 2.80661 13.148 3.82928 14.1707C4.85195 15.1934 6.15492 15.8898 7.5734 16.172C8.99189 16.4541 10.4622 16.3093 11.7984 15.7559C13.1346 15.2024 14.2766 14.2651 15.0801 13.0626C15.8836 11.8601 16.3125 10.4463 16.3125 9C16.3101 7.06135 15.5389 5.20279 14.168 3.83195C12.7972 2.46112 10.9387 1.68992 9 1.6875ZM11.8125 9.5625H9.5625V11.8125C9.5625 11.9617 9.50324 12.1048 9.39775 12.2102C9.29226 12.3157 9.14918 12.375 9 12.375C8.85082 12.375 8.70774 12.3157 8.60225 12.2102C8.49676 12.1048 8.4375 11.9617 8.4375 11.8125V9.5625H6.1875C6.03832 9.5625 5.89524 9.50324 5.78975 9.39775C5.68426 9.29226 5.625 9.14918 5.625 9C5.625 8.85082 5.68426 8.70774 5.78975 8.60225C5.89524 8.49676 6.03832 8.4375 6.1875 8.4375H8.4375V6.1875C8.4375 6.03832 8.49676 5.89524 8.60225 5.78975C8.70774 5.68426 8.85082 5.625 9 5.625C9.14918 5.625 9.29226 5.68426 9.39775 5.78975C9.50324 5.89524 9.5625 6.03832 9.5625 6.1875V8.4375H11.8125C11.9617 8.4375 12.1048 8.49676 12.2102 8.60225C12.3157 8.70774 12.375 8.85082 12.375 9C12.375 9.14918 12.3157 9.29226 12.2102 9.39775C12.1048 9.50324 11.9617 9.5625 11.8125 9.5625Z" fill="var(--fill-0, #18181B)" fill-opacity="0.28"/>
</g>
</svg>
