<svg preserveAspectRatio="none" width="100%" height="100%" overflow="visible" style="display: block;" viewBox="0 0 18 18" fill="none" xmlns="http://www.w3.org/2000/svg">
<g id="Frame">
<path id="Vector" d="M14.625 2.25H3.375C3.07663 2.25 2.79048 2.36853 2.5795 2.5795C2.36853 2.79048 2.25 3.07663 2.25 3.375V14.625C2.25 14.9234 2.36853 15.2095 2.5795 15.4205C2.79048 15.6315 3.07663 15.75 3.375 15.75H14.625C14.9234 15.75 15.2095 15.6315 15.4205 15.4205C15.6315 15.2095 15.75 14.9234 15.75 14.625V3.375C15.75 3.07663 15.6315 2.79048 15.4205 2.5795C15.2095 2.36853 14.9234 2.25 14.625 2.25ZM13.5 12.9375H4.5C4.35082 12.9375 4.20774 12.8782 4.10225 12.7727C3.99676 12.6673 3.9375 12.5242 3.9375 12.375C3.9375 12.2258 3.99676 12.0827 4.10225 11.9773C4.20774 11.8718 4.35082 11.8125 4.5 11.8125H13.5C13.6492 11.8125 13.7923 11.8718 13.8977 11.9773C14.0032 12.0827 14.0625 12.2258 14.0625 12.375C14.0625 12.5242 14.0032 12.6673 13.8977 12.7727C13.7923 12.8782 13.6492 12.9375 13.5 12.9375ZM13.5 9.5625H4.5C4.35082 9.5625 4.20774 9.50324 4.10225 9.39775C3.99676 9.29226 3.9375 9.14918 3.9375 9C3.9375 8.85082 3.99676 8.70774 4.10225 8.60225C4.20774 8.49676 4.35082 8.4375 4.5 8.4375H13.5C13.6492 8.4375 13.7923 8.49676 13.8977 8.60225C14.0032 8.70774 14.0625 8.85082 14.0625 9C14.0625 9.14918 14.0032 9.29226 13.8977 9.39775C13.7923 9.50324 13.6492 9.5625 13.5 9.5625ZM13.5 6.1875H4.5C4.35082 6.1875 4.20774 6.12824 4.10225 6.02275C3.99676 5.91726 3.9375 5.77418 3.9375 5.625C3.9375 5.47582 3.99676 5.33274 4.10225 5.22725C4.20774 5.12176 4.35082 5.0625 4.5 5.0625H13.5C13.6492 5.0625 13.7923 5.12176 13.8977 5.22725C14.0032 5.33274 14.0625 5.47582 14.0625 5.625C14.0625 5.77418 14.0032 5.91726 13.8977 6.02275C13.7923 6.12824 13.6492 6.1875 13.5 6.1875Z" fill="var(--fill-0, #18181B)" fill-opacity="0.28"/>
</g>
</svg>
