<svg preserveAspectRatio="none" width="100%" height="100%" overflow="visible" style="display: block;" viewBox="0 0 18 18" fill="none" xmlns="http://www.w3.org/2000/svg">
<g id="Frame">
<path id="Vector" d="M9 1.6875C5.21508 1.6875 2.25 3.41719 2.25 5.625V12.375C2.25 14.5828 5.21508 16.3125 9 16.3125C12.7849 16.3125 15.75 14.5828 15.75 12.375V5.625C15.75 3.41719 12.7849 1.6875 9 1.6875ZM14.625 9C14.625 9.67641 14.0709 10.3662 13.1055 10.8928C12.0185 11.4855 10.5602 11.8125 9 11.8125C7.43977 11.8125 5.98148 11.4855 4.89445 10.8928C3.92906 10.3662 3.375 9.67641 3.375 9V7.83C4.57453 8.88469 6.62555 9.5625 9 9.5625C11.3745 9.5625 13.4255 8.88188 14.625 7.83V9ZM13.1055 14.2678C12.0185 14.8605 10.5602 15.1875 9 15.1875C7.43977 15.1875 5.98148 14.8605 4.89445 14.2678C3.92906 13.7412 3.375 13.0514 3.375 12.375V11.205C4.57453 12.2597 6.62555 12.9375 9 12.9375C11.3745 12.9375 13.4255 12.2569 14.625 11.205V12.375C14.625 13.0514 14.0709 13.7412 13.1055 14.2678Z" fill="var(--fill-0, #18181B)" fill-opacity="0.28"/>
</g>
</svg>
