<svg preserveAspectRatio="none" width="100%" height="100%" overflow="visible" style="display: block;" viewBox="0 0 18 18" fill="none" xmlns="http://www.w3.org/2000/svg">
<g id="Frame">
<path id="Vector" d="M3.9375 14.625C3.93753 14.7003 3.92244 14.7749 3.89313 14.8442C3.86381 14.9136 3.82086 14.9764 3.76683 15.0288C3.71279 15.0813 3.64878 15.1224 3.57857 15.1496C3.50836 15.1769 3.4334 15.1898 3.35812 15.1875C3.21063 15.1782 3.07218 15.1132 2.97086 15.0056C2.86953 14.898 2.81292 14.7559 2.8125 14.6081C2.80826 14.4648 2.74941 14.3284 2.64799 14.227C2.54657 14.1256 2.41024 14.0667 2.26688 14.0625C2.11909 14.0621 1.97699 14.0055 1.8694 13.9041C1.76181 13.8028 1.69678 13.6644 1.6875 13.5169C1.68524 13.4416 1.69812 13.3666 1.72538 13.2964C1.75263 13.2262 1.79371 13.1622 1.84617 13.1082C1.89862 13.0541 1.9614 13.0112 2.03077 12.9819C2.10014 12.9526 2.17469 12.9375 2.25 12.9375C2.69755 12.9375 3.12677 13.1153 3.44324 13.4318C3.75971 13.7482 3.9375 14.1774 3.9375 14.625ZM2.25 10.6875C2.17212 10.6872 2.09504 10.7032 2.02364 10.7342C1.95223 10.7653 1.88806 10.8109 1.83518 10.8681C1.7823 10.9252 1.74187 10.9928 1.71645 11.0664C1.69103 11.14 1.68117 11.2181 1.6875 11.2957C1.70191 11.4387 1.76941 11.5711 1.87667 11.6668C1.98393 11.7625 2.12316 11.8145 2.26688 11.8125C3.00695 11.8169 3.71546 12.1129 4.23879 12.6362C4.76211 13.1595 5.05807 13.868 5.0625 14.6081C5.06056 14.752 5.11265 14.8913 5.20847 14.9985C5.30429 15.1058 5.43687 15.1733 5.58 15.1875C5.65756 15.1937 5.73558 15.1838 5.8091 15.1583C5.88263 15.1329 5.95007 15.0924 6.00717 15.0395C6.06427 14.9867 6.10977 14.9225 6.14081 14.8512C6.17185 14.7798 6.18775 14.7028 6.1875 14.625C6.18638 13.5811 5.77118 12.5802 5.033 11.842C4.29482 11.1038 3.29395 10.6886 2.25 10.6875ZM2.25 8.4375C2.17244 8.43728 2.09568 8.4531 2.02453 8.48397C1.95338 8.51484 1.88938 8.56009 1.83656 8.61688C1.78374 8.67366 1.74323 8.74076 1.71757 8.81395C1.69192 8.88714 1.68168 8.96485 1.6875 9.04219C1.70193 9.18625 1.7699 9.31965 1.87797 9.416C1.98603 9.51235 2.12633 9.56463 2.27109 9.5625C3.60575 9.56952 4.88377 10.1027 5.82766 11.0463C6.77155 11.99 7.30511 13.2678 7.3125 14.6025C7.31037 14.7473 7.36265 14.8876 7.459 14.9956C7.55535 15.1037 7.68875 15.1717 7.83281 15.1861C7.91015 15.1919 7.98786 15.1817 8.06105 15.156C8.13424 15.1304 8.20134 15.0899 8.25812 15.037C8.31491 14.9842 8.36016 14.9202 8.39103 14.8491C8.4219 14.7779 8.43772 14.7012 8.4375 14.6236C8.43527 12.9834 7.78261 11.411 6.62267 10.2513C5.46273 9.09166 3.89021 8.43936 2.25 8.4375ZM15.1875 2.8125H2.8125C2.51413 2.8125 2.22798 2.93103 2.017 3.142C1.80603 3.35298 1.6875 3.63913 1.6875 3.9375V7.03688C1.68747 7.07471 1.69508 7.11217 1.70987 7.147C1.72466 7.18183 1.74633 7.21331 1.77357 7.23957C1.80081 7.26583 1.83308 7.28632 1.86843 7.29982C1.90377 7.31332 1.94148 7.31954 1.9793 7.31813C2.98414 7.28204 3.98565 7.45335 4.92137 7.82137C5.85709 8.1894 6.70696 8.74626 7.41798 9.45721C8.12901 10.1682 8.68594 11.018 9.05406 11.9537C9.42217 12.8894 9.59357 13.8909 9.55758 14.8957C9.55616 14.9335 9.56238 14.9712 9.57588 15.0066C9.58938 15.0419 9.60987 15.0742 9.63613 15.1014C9.66239 15.1287 9.69388 15.1503 9.72871 15.1651C9.76353 15.1799 9.80099 15.1875 9.83883 15.1875H15.1875C15.4859 15.1875 15.772 15.069 15.983 14.858C16.194 14.647 16.3125 14.3609 16.3125 14.0625V3.9375C16.3125 3.63913 16.194 3.35298 15.983 3.142C15.772 2.93103 15.4859 2.8125 15.1875 2.8125Z" fill="var(--fill-0, #18181B)"/>
</g>
</svg>
