<svg preserveAspectRatio="none" width="100%" height="100%" overflow="visible" style="display: block;" viewBox="0 0 44 44" fill="none" xmlns="http://www.w3.org/2000/svg">
<g id="store_un">
<rect width="44" height="44" rx="12" fill="var(--fill-0, rgba(255,255,255,0.16))"/>
<path id="Vector" d="M22.75 22.374V27.624C22.75 27.8229 22.671 28.0137 22.5303 28.1543C22.3897 28.295 22.1989 28.374 22 28.374C21.8011 28.374 21.6103 28.295 21.4697 28.1543C21.329 28.0137 21.25 27.8229 21.25 27.624V22.374C21.25 22.1751 21.329 21.9843 21.4697 21.8437C21.6103 21.703 21.8011 21.624 22 21.624C22.1989 21.624 22.3897 21.703 22.5303 21.8437C22.671 21.9843 22.75 22.1751 22.75 22.374ZM26.2037 22.299L25.6787 27.549C25.6684 27.6473 25.6775 27.7467 25.7057 27.8414C25.7339 27.9361 25.7805 28.0244 25.8428 28.1011C25.9052 28.1777 25.9821 28.2413 26.0692 28.2881C26.1562 28.335 26.2516 28.3642 26.35 28.374C26.3753 28.3754 26.4006 28.3754 26.4259 28.374C26.6117 28.3738 26.7908 28.3046 26.9285 28.1799C27.0662 28.0552 27.1527 27.8838 27.1712 27.699L27.6962 22.449C27.7161 22.2511 27.6566 22.0534 27.5307 21.8993C27.4048 21.7453 27.2229 21.6476 27.025 21.6277C26.8271 21.6079 26.6294 21.6674 26.4754 21.7933C26.3213 21.9192 26.2236 22.1011 26.2037 22.299ZM17.7963 22.299C17.7764 22.1011 17.6787 21.9192 17.5246 21.7933C17.3706 21.6674 17.1729 21.6079 16.975 21.6277C16.7771 21.6476 16.5952 21.7453 16.4693 21.8993C16.3434 22.0534 16.2839 22.2511 16.3038 22.449L16.8288 27.699C16.8474 27.8846 16.9346 28.0567 17.0733 28.1815C17.212 28.3063 17.3922 28.3749 17.5787 28.374C17.604 28.3754 17.6294 28.3754 17.6547 28.374C17.7527 28.3641 17.8478 28.3351 17.9346 28.2885C18.0213 28.2419 18.0981 28.1787 18.1604 28.1024C18.2227 28.0261 18.2694 27.9383 18.2978 27.844C18.3262 27.7497 18.3358 27.6507 18.3259 27.5527L17.7963 22.299ZM32.4934 19.4734L31.0806 30.0727C31.0313 30.4325 30.8537 30.7623 30.5805 31.0014C30.3073 31.2405 29.9568 31.3728 29.5937 31.374H14.4063C14.0432 31.3728 13.6927 31.2405 13.4195 31.0014C13.1463 30.7623 12.9687 30.4325 12.9194 30.0727L11.5066 19.4734C11.4924 19.3674 11.501 19.2597 11.5319 19.1573C11.5628 19.055 11.6152 18.9605 11.6856 18.88C11.756 18.7996 11.8428 18.7351 11.9401 18.691C12.0375 18.6468 12.1431 18.624 12.25 18.624H16.4097L21.4375 12.8799C21.5079 12.8001 21.5944 12.7362 21.6914 12.6924C21.7884 12.6486 21.8936 12.626 22 12.626C22.1064 12.626 22.2116 12.6486 22.3086 12.6924C22.4056 12.7362 22.4921 12.8001 22.5625 12.8799L27.5903 18.624H31.75C31.8569 18.624 31.9625 18.6468 32.0599 18.691C32.1572 18.7351 32.244 18.7996 32.3144 18.88C32.3848 18.9605 32.4372 19.055 32.4681 19.1573C32.499 19.2597 32.5076 19.3674 32.4934 19.4734ZM18.4028 18.624H25.5972L22 14.5131L18.4028 18.624ZM30.8931 20.124H13.1069L14.4063 29.874H29.5937L30.8931 20.124Z" fill="var(--fill-0, #ffffff)" fill-opacity="0.36"/>
</g>
</svg>
