<svg preserveAspectRatio="none" width="100%" height="100%" overflow="visible" style="display: block;" viewBox="0 0 44 44" fill="none" xmlns="http://www.w3.org/2000/svg">
<g id="make_un">
<rect width="44" height="44" rx="12" fill="rgba(255,255,255,0.2)"/>
<path id="Vector" d="M31.8216 19.0044C31.7548 18.9274 31.6724 18.8657 31.58 18.8233C31.4876 18.781 31.3874 18.7589 31.2859 18.7587H27.3243L22.5358 13.2438C22.4688 13.1672 22.3864 13.1058 22.294 13.0638C22.2016 13.0217 22.1015 13 22.0001 13C21.8988 13 21.7986 13.0217 21.7062 13.0638C21.6139 13.1058 21.5314 13.1672 21.4644 13.2438L16.676 18.7587H12.7143C12.6125 18.7587 12.5119 18.7806 12.4192 18.823C12.3265 18.8654 12.2439 18.9273 12.1768 19.0045C12.1098 19.0817 12.0599 19.1725 12.0305 19.2708C12.001 19.369 11.9928 19.4725 12.0063 19.5742L13.3518 29.7507C13.3988 30.096 13.5679 30.4127 13.8282 30.6423C14.0884 30.8718 14.4221 30.9989 14.7679 31H29.2323C29.5781 30.9989 29.9119 30.8718 30.1721 30.6423C30.4323 30.4127 30.6014 30.096 30.6484 29.7507L31.9939 19.5742C32.0072 19.4723 31.9987 19.3688 31.9689 19.2705C31.9392 19.1722 31.889 19.0815 31.8216 19.0044ZM17.8572 28.1197C17.8331 28.121 17.809 28.121 17.7849 28.1197C17.6072 28.1206 17.4356 28.0547 17.3035 27.9349C17.1714 27.815 17.0884 27.6499 17.0706 27.4716L16.5706 22.4311C16.5517 22.2411 16.6084 22.0512 16.7283 21.9034C16.8482 21.7555 17.0214 21.6617 17.2099 21.6426C17.3984 21.6235 17.5867 21.6807 17.7334 21.8015C17.8801 21.9224 17.9731 22.097 17.9921 22.2871L18.4921 27.3276C18.5121 27.5175 18.4564 27.7076 18.3374 27.8562C18.2183 28.0047 18.0456 28.0995 17.8572 28.1197ZM22.7144 27.3996C22.7144 27.5906 22.6391 27.7737 22.5052 27.9088C22.3712 28.0438 22.1896 28.1197 22.0001 28.1197C21.8107 28.1197 21.629 28.0438 21.495 27.9088C21.3611 27.7737 21.2858 27.5906 21.2858 27.3996V22.3591C21.2858 22.1681 21.3611 21.9849 21.495 21.8499C21.629 21.7149 21.8107 21.639 22.0001 21.639C22.1896 21.639 22.3712 21.7149 22.5052 21.8499C22.6391 21.9849 22.7144 22.1681 22.7144 22.3591V27.3996ZM18.5742 18.7587L22.0001 14.8118L25.426 18.7587H18.5742ZM27.4251 22.4311L26.9251 27.4716C26.9075 27.6491 26.8251 27.8136 26.6939 27.9333C26.5628 28.0531 26.3922 28.1195 26.2153 28.1197C26.1912 28.121 26.1671 28.121 26.143 28.1197C26.0497 28.1102 25.9591 28.0823 25.8765 28.0376C25.7938 27.9929 25.7207 27.9321 25.6614 27.8589C25.602 27.7857 25.5575 27.7014 25.5305 27.6109C25.5034 27.5203 25.4943 27.4253 25.5037 27.3312L26.0037 22.2907C26.0227 22.1006 26.1157 21.926 26.2624 21.8051C26.4091 21.6843 26.5974 21.6271 26.7859 21.6462C26.9744 21.6653 27.1476 21.7591 27.2675 21.907C27.3874 22.0548 27.4441 22.2447 27.4251 22.4347V22.4311Z" fill="var(--fill-0, white)"/>
</g>
</svg>
