<svg preserveAspectRatio="none" width="100%" height="100%" overflow="visible" style="display: block;" viewBox="0 0 44 44" fill="none" xmlns="http://www.w3.org/2000/svg">
<g id="admin_un">
<rect width="44" height="44" rx="12" fill="var(--fill-0, rgba(255,255,255,0.16))"/>
<path id="Vector" d="M21.9986 17.4986C21.1086 17.4986 20.2385 17.7625 19.4985 18.257C18.7585 18.7514 18.1817 19.4543 17.8411 20.2765C17.5005 21.0988 17.4114 22.0036 17.5851 22.8765C17.7587 23.7494 18.1873 24.5512 18.8166 25.1806C19.4459 25.8099 20.2478 26.2385 21.1207 26.4121C21.9936 26.5858 22.8984 26.4966 23.7207 26.1561C24.5429 25.8155 25.2457 25.2387 25.7402 24.4987C26.2347 23.7586 26.4986 22.8886 26.4986 21.9986C26.4974 20.8055 26.0228 19.6616 25.1792 18.818C24.3356 17.9743 23.1917 17.4998 21.9986 17.4986ZM21.9986 24.9986C21.4053 24.9986 20.8252 24.8226 20.3319 24.493C19.8385 24.1634 19.454 23.6948 19.227 23.1466C18.9999 22.5985 18.9405 21.9953 19.0562 21.4133C19.172 20.8314 19.4577 20.2968 19.8773 19.8773C20.2968 19.4577 20.8314 19.172 21.4133 19.0562C21.9953 18.9405 22.5985 18.9999 23.1466 19.227C23.6948 19.454 24.1634 19.8385 24.493 20.3319C24.8226 20.8252 24.9986 21.4053 24.9986 21.9986C24.9986 22.7942 24.6825 23.5573 24.1199 24.1199C23.5573 24.6825 22.7942 24.9986 21.9986 24.9986ZM30.2486 22.2011C30.2523 22.0661 30.2523 21.9311 30.2486 21.7961L31.6473 20.0486C31.7207 19.9568 31.7715 19.8491 31.7956 19.7342C31.8197 19.6192 31.8164 19.5002 31.7861 19.3867C31.5568 18.5248 31.2138 17.6972 30.7661 16.9258C30.7075 16.8248 30.6261 16.739 30.5284 16.675C30.4308 16.611 30.3196 16.5707 30.2036 16.5573L27.9798 16.3098C27.8873 16.2123 27.7936 16.1186 27.6986 16.0286L27.4361 13.7992C27.4226 13.6832 27.3822 13.5719 27.318 13.4742C27.2539 13.3766 27.1678 13.2952 27.0667 13.2367C26.295 12.7899 25.4675 12.4472 24.6058 12.2177C24.4922 12.1875 24.3732 12.1844 24.2582 12.2086C24.1432 12.2329 24.0356 12.2838 23.9439 12.3573L22.2011 13.7486C22.0661 13.7486 21.9311 13.7486 21.7961 13.7486L20.0486 12.3527C19.9568 12.2793 19.8491 12.2285 19.7342 12.2044C19.6192 12.1803 19.5002 12.1836 19.3867 12.2139C18.5249 12.4436 17.6974 12.7866 16.9258 13.2339C16.8248 13.2925 16.739 13.3739 16.675 13.4716C16.611 13.5692 16.5707 13.6804 16.5573 13.7964L16.3098 16.0239C16.2123 16.117 16.1186 16.2108 16.0286 16.3052L13.7992 16.5611C13.6832 16.5746 13.5719 16.615 13.4742 16.6792C13.3766 16.7433 13.2952 16.8293 13.2367 16.9305C12.7899 17.7022 12.4472 18.5297 12.2177 19.3914C12.1875 19.505 12.1844 19.624 12.2086 19.739C12.2329 19.854 12.2838 19.9616 12.3573 20.0533L13.7486 21.7961C13.7486 21.9311 13.7486 22.0661 13.7486 22.2011L12.3527 23.9486C12.2793 24.0403 12.2285 24.148 12.2044 24.263C12.1803 24.378 12.1836 24.497 12.2139 24.6105C12.4432 25.4724 12.7862 26.3 13.2339 27.0714C13.2925 27.1724 13.3739 27.2582 13.4716 27.3222C13.5692 27.3862 13.6804 27.4264 13.7964 27.4398L16.0202 27.6873C16.1133 27.7848 16.207 27.8786 16.3014 27.9686L16.5611 30.198C16.5746 30.314 16.615 30.4253 16.6792 30.523C16.7433 30.6206 16.8293 30.702 16.9305 30.7605C17.7022 31.2073 18.5297 31.55 19.3914 31.7795C19.505 31.8097 19.624 31.8128 19.739 31.7885C19.854 31.7643 19.9616 31.7133 20.0533 31.6398L21.7961 30.2486C21.9311 30.2523 22.0661 30.2523 22.2011 30.2486L23.9486 31.6473C24.0403 31.7207 24.148 31.7715 24.263 31.7956C24.378 31.8197 24.497 31.8164 24.6105 31.7861C25.4724 31.5568 26.3 31.2138 27.0714 30.7661C27.1724 30.7075 27.2582 30.6261 27.3222 30.5284C27.3862 30.4308 27.4264 30.3196 27.4398 30.2036L27.6873 27.9798C27.7848 27.8873 27.8786 27.7936 27.9686 27.6986L30.198 27.4361C30.314 27.4226 30.4253 27.3822 30.523 27.318C30.6206 27.2539 30.702 27.1678 30.7605 27.0667C31.2073 26.295 31.55 25.4675 31.7795 24.6058C31.8097 24.4922 31.8128 24.3732 31.7885 24.2582C31.7643 24.1432 31.7133 24.0356 31.6398 23.9439L30.2486 22.2011ZM28.7392 21.5917C28.7552 21.8627 28.7552 22.1345 28.7392 22.4055C28.7281 22.591 28.7862 22.7741 28.9023 22.9192L30.2327 24.5814C30.08 25.0665 29.8846 25.5371 29.6486 25.9877L27.5298 26.2277C27.3453 26.2481 27.175 26.3363 27.0517 26.4752C26.8713 26.6781 26.6791 26.8703 26.4761 27.0508C26.3373 27.174 26.2491 27.3444 26.2286 27.5289L25.9933 29.6458C25.5428 29.8819 25.0722 30.0773 24.587 30.2298L22.9239 28.8995C22.7908 28.7932 22.6255 28.7353 22.4552 28.7355H22.4102C22.1391 28.7514 21.8674 28.7514 21.5964 28.7355C21.4109 28.7243 21.2278 28.7824 21.0827 28.8986L19.4158 30.2298C18.9307 30.0772 18.4601 29.8817 18.0095 29.6458L17.7695 27.5298C17.749 27.3453 17.6609 27.175 17.522 27.0517C17.3191 26.8713 17.1269 26.6791 16.9464 26.4761C16.8232 26.3373 16.6528 26.2491 16.4683 26.2286L14.3514 25.9923C14.1153 25.5419 13.9199 25.0713 13.7673 24.5861L15.0977 22.923C15.2138 22.7779 15.272 22.5948 15.2608 22.4092C15.2448 22.1382 15.2448 21.8665 15.2608 21.5955C15.272 21.4099 15.2138 21.2268 15.0977 21.0817L13.7673 19.4158C13.92 18.9307 14.1154 18.4601 14.3514 18.0095L16.4673 17.7695C16.6519 17.749 16.8222 17.6609 16.9455 17.522C17.1259 17.3191 17.3181 17.1269 17.5211 16.9464C17.6605 16.8231 17.749 16.6523 17.7695 16.4673L18.0048 14.3514C18.4553 14.1153 18.9259 13.9199 19.4111 13.7673L21.0742 15.0977C21.2193 15.2138 21.4024 15.272 21.588 15.2608C21.859 15.2448 22.1307 15.2448 22.4017 15.2608C22.5873 15.272 22.7704 15.2138 22.9155 15.0977L24.5814 13.7673C25.0665 13.92 25.5371 14.1154 25.9877 14.3514L26.2277 16.4673C26.2481 16.6519 26.3363 16.8222 26.4752 16.9455C26.6781 17.1259 26.8703 17.3181 27.0508 17.5211C27.174 17.6599 27.3444 17.7481 27.5289 17.7686L29.6458 18.0039C29.8819 18.4544 30.0773 18.925 30.2298 19.4102L28.8995 21.0733C28.7823 21.2196 28.7241 21.4046 28.7364 21.5917H28.7392Z" fill="var(--fill-0, #ffffff)" fill-opacity="0.36"/>
</g>
</svg>
