<svg preserveAspectRatio="none" width="100%" height="100%" overflow="visible" style="display: block;" viewBox="0 0 24 24" fill="none" xmlns="http://www.w3.org/2000/svg">
<g id="Frame">
<path id="Vector" d="M1 7.13091C1 6.89358 1.09658 6.66598 1.26849 6.49816C1.44039 6.33034 1.67355 6.23606 1.91667 6.23606H6.17573C6.37331 5.58996 6.77922 5.02335 7.33311 4.62048C7.88699 4.21761 8.55927 4 9.25 4C9.94073 4 10.613 4.21761 11.1669 4.62048C11.7208 5.02335 12.1267 5.58996 12.3243 6.23606H22.0833C22.3264 6.23606 22.5596 6.33034 22.7315 6.49816C22.9034 6.66598 23 6.89358 23 7.13091C23 7.36824 22.9034 7.59585 22.7315 7.76367C22.5596 7.93148 22.3264 8.02576 22.0833 8.02576H12.3243C12.1267 8.67187 11.7208 9.23848 11.1669 9.64135C10.613 10.0442 9.94073 10.2618 9.25 10.2618C8.55927 10.2618 7.88699 10.0442 7.33311 9.64135C6.77922 9.23848 6.37331 8.67187 6.17573 8.02576H1.91667C1.67355 8.02576 1.44039 7.93148 1.26849 7.76367C1.09658 7.59585 1 7.36824 1 7.13091ZM22.0833 16.9742H19.6576C19.46 16.3281 19.0541 15.7615 18.5002 15.3587C17.9463 14.9558 17.2741 14.7382 16.5833 14.7382C15.8926 14.7382 15.2203 14.9558 14.6664 15.3587C14.1126 15.7615 13.7066 16.3281 13.5091 16.9742H1.91667C1.67355 16.9742 1.44039 17.0685 1.26849 17.2363C1.09658 17.4042 1 17.6318 1 17.8691C1 18.1064 1.09658 18.334 1.26849 18.5018C1.44039 18.6697 1.67355 18.7639 1.91667 18.7639H13.5091C13.7066 19.41 14.1126 19.9767 14.6664 20.3795C15.2203 20.7824 15.8926 21 16.5833 21C17.2741 21 17.9463 20.7824 18.5002 20.3795C19.0541 19.9767 19.46 19.41 19.6576 18.7639H22.0833C22.3264 18.7639 22.5596 18.6697 22.7315 18.5018C22.9034 18.334 23 18.1064 23 17.8691C23 17.6318 22.9034 17.4042 22.7315 17.2363C22.5596 17.0685 22.3264 16.9742 22.0833 16.9742Z" fill="var(--fill-0, white)" fill-opacity="0.36"/>
</g>
</svg>
