<svg preserveAspectRatio="none" width="100%" height="100%" overflow="visible" style="display: block;" viewBox="0 0 44 44" fill="none" xmlns="http://www.w3.org/2000/svg">
<g id="store_un">
<path id="Vector" d="M31.5114 20.3916L23.1781 11.9917C22.8656 11.6768 22.4418 11.5 22 11.5C21.5582 11.5 21.1344 11.6768 20.8219 11.9917L12.4886 20.3916C12.333 20.5472 12.2098 20.7324 12.1259 20.9364C12.042 21.1405 11.9992 21.3593 12 21.5801V31.66C12 31.8828 12.0878 32.0964 12.2441 32.254C12.4004 32.4115 12.6123 32.5 12.8333 32.5H19.5C19.721 32.5 19.933 32.4115 20.0893 32.254C20.2455 32.0964 20.3333 31.8828 20.3333 31.66V25.7801H23.6667V31.66C23.6667 31.8828 23.7545 32.0964 23.9107 32.254C24.067 32.4115 24.279 32.5 24.5 32.5H31.1667C31.3877 32.5 31.5996 32.4115 31.7559 32.254C31.9122 32.0964 32 31.8828 32 31.66V21.5801C32.0008 21.3593 31.958 21.1405 31.8741 20.9364C31.7902 20.7324 31.667 20.5472 31.5114 20.3916ZM30.3333 30.82H25.3333V24.9401C25.3333 24.7173 25.2455 24.5037 25.0893 24.3461C24.933 24.1886 24.721 24.1001 24.5 24.1001H19.5C19.279 24.1001 19.067 24.1886 18.9107 24.3461C18.7545 24.5037 18.6667 24.7173 18.6667 24.9401V30.82H13.6667V21.5801L22 13.1802L30.3333 21.5801V30.82Z" fill="var(--fill-0, white)" fill-opacity="0.36"/>
</g>
</svg>
