<svg preserveAspectRatio="none" width="100%" height="100%" overflow="visible" style="display: block;" viewBox="0 0 44 44" fill="none" xmlns="http://www.w3.org/2000/svg">
<g id="make_un">
<rect width="44" height="44" rx="12" fill="var(--fill-0, #5B3D7A)"/>
<path id="Vector" d="M32 21.5796V31.66C32 31.8828 31.9122 32.0964 31.7559 32.254C31.5996 32.4115 31.3877 32.5 31.1667 32.5H25.3333C25.1123 32.5 24.9004 32.4115 24.7441 32.254C24.5878 32.0964 24.5 31.8828 24.5 31.66V26.1998C24.5 26.0884 24.4561 25.9815 24.378 25.9028C24.2998 25.824 24.1938 25.7798 24.0833 25.7798H19.9167C19.8062 25.7798 19.7002 25.824 19.622 25.9028C19.5439 25.9815 19.5 26.0884 19.5 26.1998V31.66C19.5 31.8828 19.4122 32.0964 19.2559 32.254C19.0996 32.4115 18.8877 32.5 18.6667 32.5H12.8333C12.6123 32.5 12.4004 32.4115 12.2441 32.254C12.0878 32.0964 12 31.8828 12 31.66V21.5796C12.0002 21.1341 12.1759 20.7069 12.4885 20.392L20.8219 11.9917C21.1344 11.6769 21.5582 11.5 22 11.5C22.4418 11.5 22.8656 11.6769 23.1781 11.9917L31.5115 20.392C31.8241 20.7069 31.9998 21.1341 32 21.5796Z" fill="var(--fill-0, white)"/>
</g>
</svg>
