<svg preserveAspectRatio="none" width="100%" height="100%" overflow="visible" style="display: block;" viewBox="0 0 44 44" fill="none" xmlns="http://www.w3.org/2000/svg">
<g id="&#236;&#149;&#140;&#235;&#166;&#188;">
<path id="Vector" d="M25.7511 31.2308C25.7511 31.4348 25.6721 31.6304 25.5314 31.7747C25.3907 31.919 25.1999 32 25.001 32H18.9999C18.801 32 18.6102 31.919 18.4695 31.7747C18.3289 31.6304 18.2498 31.4348 18.2498 31.2308C18.2498 31.0268 18.3289 30.8311 18.4695 30.6868C18.6102 30.5426 18.801 30.4615 18.9999 30.4615H25.001C25.1999 30.4615 25.3907 30.5426 25.5314 30.6868C25.6721 30.8311 25.7511 31.0268 25.7511 31.2308ZM30.7967 26.6096C30.2753 25.6904 29.5018 23.0894 29.5018 19.6923C29.5018 17.6522 28.7115 15.6956 27.3047 14.253C25.8979 12.8104 23.9899 12 22.0005 12C20.011 12 18.103 12.8104 16.6963 14.253C15.2895 15.6956 14.4992 17.6522 14.4992 19.6923C14.4992 23.0904 13.7247 25.6904 13.2043 26.6096C13.0714 26.8433 13.0009 27.1088 13 27.3793C12.9991 27.6499 13.0678 27.9158 13.1991 28.1505C13.3304 28.3851 13.5198 28.5801 13.748 28.7157C13.9763 28.8514 14.2354 28.9229 14.4992 28.9231H29.5018C29.7655 28.9227 30.0245 28.8511 30.2526 28.7153C30.4807 28.5796 30.6699 28.3847 30.8011 28.1501C30.9323 27.9155 31.0009 27.6495 31 27.3791C30.999 27.1087 30.9286 26.8432 30.7957 26.6096H30.7967Z" fill="var(--fill-0, white)" fill-opacity="0.36"/>
</g>
</svg>
