<svg preserveAspectRatio="none" width="100%" height="100%" overflow="visible" style="display: block;" viewBox="0 0 44 44" fill="none" xmlns="http://www.w3.org/2000/svg">
<g id="store_un">
<path id="Vector" d="M16.5455 12C15.6464 12 14.7676 12.2666 14.0201 12.766C13.2726 13.2655 12.69 13.9754 12.346 14.806C12.002 15.6366 11.912 16.5505 12.0873 17.4322C12.2627 18.314 12.6956 19.1239 13.3313 19.7596C13.967 20.3953 14.777 20.8282 15.6587 21.0036C16.5404 21.179 17.4544 21.0889 18.2849 20.7449C19.1155 20.4009 19.8254 19.8183 20.3249 19.0708C20.8243 18.3233 21.0909 17.4445 21.0909 16.5455C21.0909 15.3399 20.612 14.1838 19.7596 13.3313C18.9071 12.4789 17.751 12 16.5455 12ZM16.5455 19.2727C16.0061 19.2727 15.4788 19.1128 15.0303 18.8131C14.5818 18.5134 14.2322 18.0875 14.0258 17.5891C13.8194 17.0908 13.7654 16.5424 13.8706 16.0134C13.9758 15.4844 14.2356 14.9984 14.617 14.617C14.9984 14.2356 15.4844 13.9758 16.0134 13.8706C16.5424 13.7654 17.0908 13.8194 17.5891 14.0258C18.0875 14.2322 18.5134 14.5818 18.8131 15.0303C19.1128 15.4788 19.2727 16.0061 19.2727 16.5455C19.2727 17.2688 18.9854 17.9625 18.4739 18.4739C17.9625 18.9854 17.2688 19.2727 16.5455 19.2727ZM27.4545 21.0909C28.3535 21.0909 29.2324 20.8243 29.9799 20.3249C30.7274 19.8254 31.31 19.1155 31.654 18.2849C31.998 17.4544 32.088 16.5404 31.9127 15.6587C31.7373 14.777 31.3044 13.967 30.6687 13.3313C30.033 12.6956 29.223 12.2627 28.3413 12.0873C27.4596 11.912 26.5456 12.002 25.7151 12.346C24.8845 12.69 24.1746 13.2726 23.6751 14.0201C23.1757 14.7676 22.9091 15.6464 22.9091 16.5455C22.9091 17.751 23.388 18.9071 24.2404 19.7596C25.0929 20.612 26.249 21.0909 27.4545 21.0909ZM27.4545 13.8182C27.9939 13.8182 28.5212 13.9781 28.9697 14.2778C29.4182 14.5775 29.7678 15.0034 29.9742 15.5018C30.1806 16.0001 30.2346 16.5485 30.1294 17.0775C30.0242 17.6066 29.7644 18.0925 29.383 18.4739C29.0016 18.8553 28.5156 19.1151 27.9866 19.2203C27.4576 19.3256 26.9092 19.2715 26.4109 19.0651C25.9125 18.8587 25.4866 18.5091 25.1869 18.0606C24.8872 17.6121 24.7273 17.0849 24.7273 16.5455C24.7273 15.8221 25.0146 15.1284 25.5261 14.617C26.0375 14.1055 26.7312 13.8182 27.4545 13.8182ZM16.5455 22.9091C15.6464 22.9091 14.7676 23.1757 14.0201 23.6751C13.2726 24.1746 12.69 24.8845 12.346 25.7151C12.002 26.5456 11.912 27.4596 12.0873 28.3413C12.2627 29.223 12.6956 30.033 13.3313 30.6687C13.967 31.3044 14.777 31.7373 15.6587 31.9127C16.5404 32.088 17.4544 31.998 18.2849 31.654C19.1155 31.31 19.8254 30.7274 20.3249 29.9799C20.8243 29.2324 21.0909 28.3535 21.0909 27.4545C21.0909 26.249 20.612 25.0929 19.7596 24.2404C18.9071 23.388 17.751 22.9091 16.5455 22.9091ZM16.5455 30.1818C16.0061 30.1818 15.4788 30.0219 15.0303 29.7222C14.5818 29.4225 14.2322 28.9966 14.0258 28.4982C13.8194 27.9999 13.7654 27.4515 13.8706 26.9225C13.9758 26.3934 14.2356 25.9075 14.617 25.5261C14.9984 25.1447 15.4844 24.8849 16.0134 24.7797C16.5424 24.6744 17.0908 24.7285 17.5891 24.9349C18.0875 25.1413 18.5134 25.4909 18.8131 25.9394C19.1128 26.3879 19.2727 26.9151 19.2727 27.4545C19.2727 28.1779 18.9854 28.8716 18.4739 29.383C17.9625 29.8945 17.2688 30.1818 16.5455 30.1818ZM32 27.4545C32 27.6956 31.9042 27.9269 31.7337 28.0974C31.5632 28.2679 31.332 28.3636 31.0909 28.3636H28.3636V31.0909C28.3636 31.332 28.2679 31.5632 28.0974 31.7337C27.9269 31.9042 27.6956 32 27.4545 32C27.2134 32 26.9822 31.9042 26.8117 31.7337C26.6412 31.5632 26.5455 31.332 26.5455 31.0909V28.3636H23.8182C23.5771 28.3636 23.3458 28.2679 23.1754 28.0974C23.0049 27.9269 22.9091 27.6956 22.9091 27.4545C22.9091 27.2134 23.0049 26.9822 23.1754 26.8117C23.3458 26.6412 23.5771 26.5455 23.8182 26.5455H26.5455V23.8182C26.5455 23.5771 26.6412 23.3458 26.8117 23.1754C26.9822 23.0049 27.2134 22.9091 27.4545 22.9091C27.6956 22.9091 27.9269 23.0049 28.0974 23.1754C28.2679 23.3458 28.3636 23.5771 28.3636 23.8182V26.5455H31.0909C31.332 26.5455 31.5632 26.6412 31.7337 26.8117C31.9042 26.9822 32 27.2134 32 27.4545Z" fill="var(--fill-0, white)" fill-opacity="0.36"/>
</g>
</svg>
