<svg preserveAspectRatio="none" width="100%" height="100%" overflow="visible" style="display: block;" viewBox="0 0 44 44" fill="none" xmlns="http://www.w3.org/2000/svg">
<g id="make_un">
<rect width="44" height="44" rx="12" fill="var(--fill-0, #5B3D7A)"/>
<path id="Vector" d="M30.4071 22.205C30.4109 22.0674 30.4109 21.9298 30.4071 21.7922L31.8327 20.0111C31.9074 19.9176 31.9592 19.8078 31.9837 19.6907C32.0083 19.5735 32.005 19.4522 31.9741 19.3365C31.74 18.4582 31.3904 17.6147 30.9345 16.8283C30.8748 16.7254 30.7918 16.6379 30.6923 16.5727C30.5928 16.5075 30.4794 16.4664 30.3612 16.4528L28.0947 16.2005C28.0004 16.1012 27.9049 16.0056 27.8081 15.9139L27.5405 13.6417C27.5268 13.5234 27.4856 13.41 27.4202 13.3104C27.3548 13.2109 27.2671 13.128 27.1641 13.0684C26.3777 12.6128 25.5342 12.2639 24.6558 12.0307C24.5402 11.9998 24.4189 11.9965 24.3017 12.021C24.1845 12.0456 24.0748 12.0973 23.9813 12.1721L22.205 13.5901C22.0674 13.5901 21.9298 13.5901 21.7922 13.5901L20.0111 12.1673C19.9176 12.0926 19.8078 12.0408 19.6907 12.0163C19.5735 11.9917 19.4522 11.995 19.3365 12.0259C18.4582 12.26 17.6147 12.6096 16.8283 13.0655C16.7254 13.1252 16.6379 13.2082 16.5727 13.3077C16.5075 13.4072 16.4664 13.5206 16.4528 13.6388L16.2005 15.9091C16.1012 16.004 16.0056 16.0996 15.9139 16.1958L13.6417 16.4566C13.5234 16.4704 13.41 16.5116 13.3104 16.5769C13.2109 16.6423 13.128 16.73 13.0684 16.8331C12.6129 17.6196 12.2637 18.463 12.0297 19.3413C11.999 19.457 11.9958 19.5784 12.0205 19.6955C12.0453 19.8127 12.0972 19.9225 12.1721 20.0159L13.5901 21.7922C13.5901 21.9298 13.5901 22.0674 13.5901 22.205L12.1673 23.986C12.0926 24.0795 12.0408 24.1893 12.0163 24.3065C11.9917 24.4237 11.995 24.545 12.0259 24.6606C12.26 25.539 12.6096 26.3824 13.0655 27.1688C13.1252 27.2717 13.2082 27.3593 13.3077 27.4244C13.4072 27.4896 13.5206 27.5307 13.6388 27.5444L15.9053 27.7966C16.0002 27.896 16.0957 27.9915 16.1919 28.0833L16.4566 30.3555C16.4704 30.4737 16.5116 30.5872 16.5769 30.6867C16.6423 30.7862 16.73 30.8691 16.8331 30.9288C17.6196 31.3842 18.463 31.7335 19.3413 31.9674C19.457 31.9982 19.5784 32.0013 19.6955 31.9766C19.8127 31.9519 19.9225 31.9 20.0159 31.825L21.7922 30.4071C21.9298 30.4109 22.0674 30.4109 22.205 30.4071L23.986 31.8327C24.0795 31.9074 24.1893 31.9592 24.3065 31.9837C24.4237 32.0083 24.545 32.005 24.6606 31.9741C25.5391 31.7404 26.3826 31.3908 27.1688 30.9345C27.2717 30.8748 27.3593 30.7918 27.4244 30.6923C27.4896 30.5928 27.5307 30.4794 27.5444 30.3612L27.7966 28.0947C27.896 28.0004 27.9915 27.9049 28.0833 27.8081L30.3555 27.5405C30.4737 27.5268 30.5872 27.4856 30.6867 27.4202C30.7862 27.3548 30.8691 27.2671 30.9288 27.1641C31.3842 26.3775 31.7335 25.5341 31.9674 24.6558C31.9982 24.5401 32.0013 24.4188 31.9766 24.3016C31.9519 24.1844 31.9 24.0747 31.825 23.9813L30.4071 22.205ZM21.9986 25.8206C21.2426 25.8206 20.5037 25.5965 19.8752 25.1765C19.2466 24.7565 18.7567 24.1596 18.4675 23.4612C18.1782 22.7628 18.1025 21.9943 18.25 21.2529C18.3974 20.5115 18.7615 19.8305 19.296 19.296C19.8305 18.7615 20.5115 18.3974 21.2529 18.25C21.9943 18.1025 22.7628 18.1782 23.4612 18.4675C24.1596 18.7567 24.7565 19.2466 25.1765 19.8752C25.5965 20.5037 25.8206 21.2426 25.8206 21.9986C25.8206 23.0122 25.4179 23.9844 24.7012 24.7012C23.9844 25.4179 23.0122 25.8206 21.9986 25.8206Z" fill="var(--fill-0, white)"/>
</g>
</svg>
