<svg preserveAspectRatio="none" width="100%" height="100%" overflow="visible" style="display: block;" viewBox="0 0 44 44" fill="none" xmlns="http://www.w3.org/2000/svg">
<g id="store_un">
<rect width="44" height="44" rx="12" fill="var(--fill-0, white)"/>
<path id="Vector" d="M16.75 12.375C15.8847 12.375 15.0388 12.6316 14.3194 13.1123C13.5999 13.5931 13.0392 14.2763 12.708 15.0758C12.3769 15.8752 12.2903 16.7549 12.4591 17.6035C12.6279 18.4522 13.0446 19.2317 13.6564 19.8436C14.2683 20.4554 15.0478 20.8721 15.8965 21.0409C16.7451 21.2097 17.6248 21.1231 18.4242 20.792C19.2237 20.4608 19.9069 19.9001 20.3877 19.1806C20.8684 18.4612 21.125 17.6153 21.125 16.75C21.125 15.5897 20.6641 14.4769 19.8436 13.6564C19.0231 12.8359 17.9103 12.375 16.75 12.375ZM16.75 19.375C16.2308 19.375 15.7233 19.221 15.2916 18.9326C14.8599 18.6442 14.5235 18.2342 14.3248 17.7545C14.1261 17.2749 14.0742 16.7471 14.1754 16.2379C14.2767 15.7287 14.5267 15.261 14.8938 14.8938C15.261 14.5267 15.7287 14.2767 16.2379 14.1754C16.7471 14.0742 17.2749 14.1261 17.7545 14.3248C18.2342 14.5235 18.6442 14.8599 18.9326 15.2916C19.221 15.7233 19.375 16.2308 19.375 16.75C19.375 17.4462 19.0984 18.1139 18.6062 18.6062C18.1139 19.0984 17.4462 19.375 16.75 19.375ZM27.25 21.125C28.1153 21.125 28.9612 20.8684 29.6806 20.3877C30.4001 19.9069 30.9608 19.2237 31.292 18.4242C31.6231 17.6248 31.7097 16.7451 31.5409 15.8965C31.3721 15.0478 30.9554 14.2683 30.3436 13.6564C29.7317 13.0446 28.9522 12.6279 28.1035 12.4591C27.2549 12.2903 26.3752 12.3769 25.5758 12.708C24.7763 13.0392 24.0931 13.5999 23.6123 14.3194C23.1316 15.0388 22.875 15.8847 22.875 16.75C22.875 17.9103 23.3359 19.0231 24.1564 19.8436C24.9769 20.6641 26.0897 21.125 27.25 21.125ZM27.25 14.125C27.7692 14.125 28.2767 14.279 28.7084 14.5674C29.1401 14.8558 29.4765 15.2658 29.6752 15.7455C29.8739 16.2251 29.9258 16.7529 29.8246 17.2621C29.7233 17.7713 29.4733 18.239 29.1062 18.6062C28.739 18.9733 28.2713 19.2233 27.7621 19.3246C27.2529 19.4258 26.7251 19.3739 26.2455 19.1752C25.7658 18.9765 25.3558 18.6401 25.0674 18.2084C24.779 17.7767 24.625 17.2692 24.625 16.75C24.625 16.0538 24.9016 15.3861 25.3938 14.8938C25.8861 14.4016 26.5538 14.125 27.25 14.125ZM16.75 22.875C15.8847 22.875 15.0388 23.1316 14.3194 23.6123C13.5999 24.0931 13.0392 24.7763 12.708 25.5758C12.3769 26.3752 12.2903 27.2549 12.4591 28.1035C12.6279 28.9522 13.0446 29.7317 13.6564 30.3436C14.2683 30.9554 15.0478 31.3721 15.8965 31.5409C16.7451 31.7097 17.6248 31.6231 18.4242 31.292C19.2237 30.9608 19.9069 30.4001 20.3877 29.6806C20.8684 28.9612 21.125 28.1153 21.125 27.25C21.125 26.0897 20.6641 24.9769 19.8436 24.1564C19.0231 23.3359 17.9103 22.875 16.75 22.875ZM16.75 29.875C16.2308 29.875 15.7233 29.721 15.2916 29.4326C14.8599 29.1442 14.5235 28.7342 14.3248 28.2545C14.1261 27.7749 14.0742 27.2471 14.1754 26.7379C14.2767 26.2287 14.5267 25.761 14.8938 25.3938C15.261 25.0267 15.7287 24.7767 16.2379 24.6754C16.7471 24.5742 17.2749 24.6261 17.7545 24.8248C18.2342 25.0235 18.6442 25.3599 18.9326 25.7916C19.221 26.2233 19.375 26.7308 19.375 27.25C19.375 27.9462 19.0984 28.6139 18.6062 29.1062C18.1139 29.5984 17.4462 29.875 16.75 29.875ZM31.625 27.25C31.625 27.4821 31.5328 27.7046 31.3687 27.8687C31.2046 28.0328 30.9821 28.125 30.75 28.125H28.125V30.75C28.125 30.9821 28.0328 31.2046 27.8687 31.3687C27.7046 31.5328 27.4821 31.625 27.25 31.625C27.0179 31.625 26.7954 31.5328 26.6313 31.3687C26.4672 31.2046 26.375 30.9821 26.375 30.75V28.125H23.75C23.5179 28.125 23.2954 28.0328 23.1313 27.8687C22.9672 27.7046 22.875 27.4821 22.875 27.25C22.875 27.0179 22.9672 26.7954 23.1313 26.6313C23.2954 26.4672 23.5179 26.375 23.75 26.375H26.375V23.75C26.375 23.5179 26.4672 23.2954 26.6313 23.1313C26.7954 22.9672 27.0179 22.875 27.25 22.875C27.4821 22.875 27.7046 22.9672 27.8687 23.1313C28.0328 23.2954 28.125 23.5179 28.125 23.75V26.375H30.75C30.9821 26.375 31.2046 26.4672 31.3687 26.6313C31.5328 26.7954 31.625 27.0179 31.625 27.25Z" fill="var(--fill-0, #18181B)" fill-opacity="0.36"/>
</g>
</svg>
