<svg preserveAspectRatio="none" width="100%" height="100%" overflow="visible" style="display: block;" viewBox="0 0 80 80" fill="none" xmlns="http://www.w3.org/2000/svg">
<g id="&#236;&#149;&#140;&#235;&#166;&#188;">
<path id="Vector" d="M52.5037 70.7692C52.5037 71.4493 52.2403 72.1015 51.7714 72.5823C51.3024 73.0632 50.6664 73.3333 50.0033 73.3333H29.9998C29.3367 73.3333 28.7007 73.0632 28.2318 72.5823C27.7628 72.1015 27.4994 71.4493 27.4994 70.7692C27.4994 70.0892 27.7628 69.437 28.2318 68.9561C28.7007 68.4753 29.3367 68.2051 29.9998 68.2051H50.0033C50.6664 68.2051 51.3024 68.4753 51.7714 68.9561C52.2403 69.437 52.5037 70.0892 52.5037 70.7692ZM69.3222 55.3654C67.5844 52.3013 65.0059 43.6314 65.0059 32.3077C65.0059 25.5073 62.3715 18.9854 57.6823 14.1767C52.9931 9.36812 46.6331 6.66667 40.0016 6.66667C33.37 6.66667 27.0101 9.36812 22.3208 14.1767C17.6316 18.9854 14.9972 25.5073 14.9972 32.3077C14.9972 43.6346 12.4155 52.3013 10.6809 55.3654C10.2379 56.1444 10.0031 57.0294 10 57.9311C9.99701 58.8329 10.2259 59.7195 10.6637 60.5016C11.1014 61.2837 11.7326 61.9335 12.4934 62.3857C13.2542 62.8378 14.1179 63.0763 14.9972 63.0769H65.0059C65.885 63.0757 66.7482 62.8369 67.5086 62.3845C68.269 61.9321 68.8997 61.2822 69.3371 60.5002C69.7745 59.7182 70.0031 58.8318 70 57.9303C69.9968 57.0288 69.762 56.1441 69.3191 55.3654H69.3222Z" fill="var(--fill-0, #E4E4E7)"/>
</g>
</svg>
