<svg preserveAspectRatio="none" width="100%" height="100%" overflow="visible" style="display: block;" viewBox="0 0 72 76.7997" fill="none" xmlns="http://www.w3.org/2000/svg">
<g id="Frame 1948758992">
<circle id="Ellipse 4" cx="36" cy="64.7997" r="12" fill="url(#paint0_linear_0_4)"/>
<path id="Union" d="M37.5996 0C40.2506 0 42.4004 2.14884 42.4004 4.7998C42.4004 5.2802 42.6801 5.73847 43.1388 5.88119C52.9072 8.92054 60 18.0312 60 28.7998C60 34.8674 65.6654 39.6828 69.3918 44.4712C71.0264 46.5718 72 49.2122 72 52.0801C71.9998 58.9282 66.4478 64.4795 59.5996 64.4795C53.1808 64.4795 47.0304 67.0715 40.7366 68.3322C39.2054 68.6389 37.6215 68.7998 36 68.7998C34.3785 68.7998 32.7946 68.6389 31.2634 68.3322C24.9696 67.0715 18.8192 64.4795 12.4004 64.4795C5.5522 64.4795 0.000217501 58.9282 0 52.0801C0 49.2122 0.973569 46.5718 2.60823 44.4712C6.33461 39.6828 12 34.8674 12 28.7998C12 17.6836 19.5576 8.33271 29.8148 5.60458C30.1705 5.50998 30.4004 5.16785 30.4004 4.7998C30.4004 2.14884 32.5492 0 35.2002 0H37.5996Z" fill="url(#paint1_linear_0_4)"/>
</g>
<defs>
<linearGradient id="paint0_linear_0_4" x1="36" y1="52.7997" x2="36" y2="76.7997" gradientUnits="userSpaceOnUse">
<stop stop-color="#52525B"/>
<stop offset="1" stop-color="#3F3F46"/>
</linearGradient>
<linearGradient id="paint1_linear_0_4" x1="36" y1="0.479688" x2="36" y2="64.4797" gradientUnits="userSpaceOnUse">
<stop stop-color="#71717A"/>
<stop offset="1" stop-color="#52525B"/>
</linearGradient>
</defs>
</svg>
