<svg width="16" height="16" viewBox="0 0 16 16" fill="none" xmlns="http://www.w3.org/2000/svg">
<path fill-rule="evenodd" clip-rule="evenodd" d="M14.4331 13.75C14.3892 13.826 14.3261 13.8892 14.2501 13.933C14.174 13.9769 14.0878 14 14 14H2C1.91228 13.9999 1.82612 13.9767 1.75018 13.9328C1.67424 13.8889 1.6112 13.8258 1.56737 13.7498C1.52355 13.6738 1.50049 13.5876 1.50051 13.4999C1.50054 13.4121 1.52364 13.326 1.5675 13.25C2.51937 11.6044 3.98625 10.4244 5.69812 9.865C4.85135 9.36091 4.19347 8.5928 3.82549 7.67862C3.45752 6.76444 3.3998 5.75475 3.66121 4.8046C3.92262 3.85445 4.4887 3.01637 5.27252 2.41908C6.05633 1.82178 7.01454 1.4983 8 1.4983C8.98546 1.4983 9.94367 1.82178 10.7275 2.41908C11.5113 3.01637 12.0774 3.85445 12.3388 4.8046C12.6002 5.75475 12.5425 6.76444 12.1745 7.67862C11.8065 8.5928 11.1486 9.36091 10.3019 9.865C12.0138 10.4244 13.4806 11.6044 14.4325 13.25C14.4765 13.326 14.4997 13.4121 14.4998 13.4999C14.4999 13.5877 14.4769 13.6739 14.4331 13.75Z" fill="#A1A1AA"/>
</svg>
