<svg preserveAspectRatio="none" width="100%" height="100%" overflow="visible" style="display: block;" viewBox="0 0 13.875 13.875" fill="none" xmlns="http://www.w3.org/2000/svg">
<path id="Union" d="M6.9375 0C7.35171 0 7.6875 0.335786 7.6875 0.75V6.1875H13.125C13.5392 6.1875 13.875 6.52329 13.875 6.9375C13.875 7.35171 13.5392 7.6875 13.125 7.6875H7.6875V13.125C7.6875 13.5392 7.35171 13.875 6.9375 13.875C6.52329 13.875 6.1875 13.5392 6.1875 13.125V7.6875H0.75C0.335786 7.6875 0 7.35171 0 6.9375C0 6.52329 0.335786 6.1875 0.75 6.1875H6.1875V0.75C6.1875 0.335786 6.52329 0 6.9375 0Z" fill="var(--fill-0, white)"/>
</svg>
