<svg preserveAspectRatio="none" width="100%" height="100%" overflow="visible" style="display: block;" viewBox="0 0 18 18" fill="none" xmlns="http://www.w3.org/2000/svg">
<g id="Frame">
<path id="Vector" d="M14.625 5.625H12.375V3.9375C12.375 3.04239 12.0194 2.18395 11.3865 1.55101C10.7536 0.918079 9.89511 0.5625 9 0.5625C8.10489 0.5625 7.24645 0.918079 6.61351 1.55101C5.98058 2.18395 5.625 3.04239 5.625 3.9375V5.625H3.375C3.07663 5.625 2.79048 5.74353 2.5795 5.95451C2.36853 6.16548 2.25 6.45163 2.25 6.75V14.625C2.25 14.9234 2.36853 15.2095 2.5795 15.4205C2.79048 15.6315 3.07663 15.75 3.375 15.75H14.625C14.9234 15.75 15.2095 15.6315 15.4205 15.4205C15.6315 15.2095 15.75 14.9234 15.75 14.625V6.75C15.75 6.45163 15.6315 6.16548 15.4205 5.95451C15.2095 5.74353 14.9234 5.625 14.625 5.625ZM9 11.5312C8.83312 11.5312 8.66999 11.4818 8.53124 11.3891C8.39248 11.2963 8.28434 11.1646 8.22048 11.0104C8.15662 10.8562 8.13991 10.6866 8.17246 10.5229C8.20502 10.3592 8.28538 10.2089 8.40338 10.0909C8.52138 9.97288 8.67172 9.89252 8.83539 9.85996C8.99906 9.82741 9.16871 9.84412 9.32289 9.90798C9.47706 9.97184 9.60884 10.08 9.70155 10.2187C9.79426 10.3575 9.84375 10.5206 9.84375 10.6875C9.84375 10.9113 9.75485 11.1259 9.59662 11.2841C9.43839 11.4424 9.22378 11.5312 9 11.5312ZM11.25 5.625H6.75V3.9375C6.75 3.34076 6.98705 2.76847 7.40901 2.34651C7.83097 1.92455 8.40326 1.6875 9 1.6875C9.59674 1.6875 10.169 1.92455 10.591 2.34651C11.0129 2.76847 11.25 3.34076 11.25 3.9375V5.625Z" fill="var(--fill-0, #71717A)"/>
</g>
</svg>
