<svg preserveAspectRatio="none" width="100%" height="100%" overflow="visible" style="display: block;" viewBox="0 0 18 18" fill="none" xmlns="http://www.w3.org/2000/svg">
<g id="Frame">
<path id="Vector" d="M8.4375 3.9375V7.3125C8.4375 7.61087 8.31897 7.89702 8.10799 8.10799C7.89702 8.31897 7.61087 8.4375 7.3125 8.4375H3.9375C3.63913 8.4375 3.35298 8.31897 3.142 8.10799C2.93103 7.89702 2.8125 7.61087 2.8125 7.3125V3.9375C2.8125 3.63913 2.93103 3.35298 3.142 3.142C3.35298 2.93103 3.63913 2.8125 3.9375 2.8125H7.3125C7.61087 2.8125 7.89702 2.93103 8.10799 3.142C8.31897 3.35298 8.4375 3.63913 8.4375 3.9375ZM14.0625 2.8125H10.6875C10.3891 2.8125 10.103 2.93103 9.89201 3.142C9.68103 3.35298 9.5625 3.63913 9.5625 3.9375V7.3125C9.5625 7.61087 9.68103 7.89702 9.89201 8.10799C10.103 8.31897 10.3891 8.4375 10.6875 8.4375H14.0625C14.3609 8.4375 14.647 8.31897 14.858 8.10799C15.069 7.89702 15.1875 7.61087 15.1875 7.3125V3.9375C15.1875 3.63913 15.069 3.35298 14.858 3.142C14.647 2.93103 14.3609 2.8125 14.0625 2.8125ZM7.3125 9.5625H3.9375C3.63913 9.5625 3.35298 9.68103 3.142 9.89201C2.93103 10.103 2.8125 10.3891 2.8125 10.6875V14.0625C2.8125 14.3609 2.93103 14.647 3.142 14.858C3.35298 15.069 3.63913 15.1875 3.9375 15.1875H7.3125C7.61087 15.1875 7.89702 15.069 8.10799 14.858C8.31897 14.647 8.4375 14.3609 8.4375 14.0625V10.6875C8.4375 10.3891 8.31897 10.103 8.10799 9.89201C7.89702 9.68103 7.61087 9.5625 7.3125 9.5625ZM14.0625 9.5625H10.6875C10.3891 9.5625 10.103 9.68103 9.89201 9.89201C9.68103 10.103 9.5625 10.3891 9.5625 10.6875V14.0625C9.5625 14.3609 9.68103 14.647 9.89201 14.858C10.103 15.069 10.3891 15.1875 10.6875 15.1875H14.0625C14.3609 15.1875 14.647 15.069 14.858 14.858C15.069 14.647 15.1875 14.3609 15.1875 14.0625V10.6875C15.1875 10.3891 15.069 10.103 14.858 9.89201C14.647 9.68103 14.3609 9.5625 14.0625 9.5625Z" fill="var(--fill-0, #5B3D7A)"/>
</g>
</svg>
