<svg preserveAspectRatio="none" width="100%" height="100%" overflow="visible" style="display: block;" viewBox="0 0 18 18" fill="none" xmlns="http://www.w3.org/2000/svg">
<g id="Frame">
<path id="Vector" d="M15.75 8.4375V15.1875C15.75 15.3367 15.6907 15.4798 15.5852 15.5852C15.4798 15.6907 15.3367 15.75 15.1875 15.75H11.25C11.1008 15.75 10.9577 15.6907 10.8523 15.5852C10.7468 15.4798 10.6875 15.3367 10.6875 15.1875V11.5312C10.6875 11.4567 10.6579 11.3851 10.6051 11.3324C10.5524 11.2796 10.4808 11.25 10.4062 11.25H7.59375C7.51916 11.25 7.44762 11.2796 7.39488 11.3324C7.34213 11.3851 7.3125 11.4567 7.3125 11.5312V15.1875C7.3125 15.3367 7.25324 15.4798 7.14775 15.5852C7.04226 15.6907 6.89918 15.75 6.75 15.75H2.8125C2.66332 15.75 2.52024 15.6907 2.41475 15.5852C2.30926 15.4798 2.25 15.3367 2.25 15.1875V8.4375C2.25014 8.13918 2.36876 7.85314 2.57977 7.64227L8.20477 2.01727C8.41572 1.80645 8.70176 1.68802 9 1.68802C9.29824 1.68802 9.58428 1.80645 9.79523 2.01727L15.4202 7.64227C15.6312 7.85314 15.7499 8.13918 15.75 8.4375Z" fill="var(--fill-0, #D4D4D8)"/>
</g>
</svg>
