<svg width="18" height="18" viewBox="0 0 18 18" fill="none" xmlns="http://www.w3.org/2000/svg">
<path d="M15.1875 9.15188C15.1903 9.05063 15.1903 8.94937 15.1875 8.84812L16.2366 7.5375C16.2916 7.46869 16.3296 7.38791 16.3477 7.30169C16.3658 7.21547 16.3634 7.12621 16.3406 7.04109C16.1683 6.39475 15.9111 5.7741 15.5756 5.19539C15.5317 5.11968 15.4706 5.05527 15.3974 5.0073C15.3242 4.95933 15.2407 4.92911 15.1538 4.91906L13.4859 4.73344C13.4166 4.66031 13.3463 4.59 13.275 4.5225L13.0781 2.85047C13.068 2.76343 13.0377 2.67996 12.9896 2.60672C12.9415 2.53347 12.8769 2.47248 12.8011 2.42859C12.2224 2.09338 11.6018 1.8366 10.9554 1.665C10.8703 1.64226 10.781 1.63983 10.6948 1.65791C10.6086 1.67598 10.5278 1.71406 10.459 1.76906L9.15188 2.8125C9.05063 2.8125 8.94937 2.8125 8.84812 2.8125L7.5375 1.76555C7.46869 1.71054 7.38791 1.67247 7.30169 1.65439C7.21547 1.63632 7.12621 1.63875 7.04109 1.66148C6.39475 1.83377 5.7741 2.09101 5.19539 2.42648C5.11968 2.47045 5.05527 2.53148 5.0073 2.60472C4.95933 2.67796 4.92911 2.76139 4.91906 2.84836L4.73344 4.51898C4.66031 4.58883 4.59 4.65914 4.5225 4.72992L2.85047 4.92188C2.76343 4.932 2.67996 4.96232 2.60672 5.01042C2.53347 5.05852 2.47248 5.12306 2.42859 5.19891C2.09345 5.77769 1.83645 6.39833 1.6643 7.04461C1.64165 7.12978 1.63934 7.21907 1.65754 7.30529C1.67573 7.39152 1.71394 7.47226 1.76906 7.54102L2.8125 8.84812C2.8125 8.94937 2.8125 9.05063 2.8125 9.15188L1.76555 10.4625C1.71054 10.5313 1.67247 10.6121 1.65439 10.6983C1.63632 10.7845 1.63875 10.8738 1.66148 10.9589C1.83377 11.6053 2.09101 12.2259 2.42648 12.8046C2.47045 12.8803 2.53148 12.9447 2.60472 12.9927C2.67796 13.0407 2.76139 13.0709 2.84836 13.0809L4.51617 13.2666C4.58602 13.3397 4.65633 13.41 4.72711 13.4775L4.92188 15.1495C4.932 15.2366 4.96232 15.32 5.01042 15.3933C5.05852 15.4665 5.12306 15.5275 5.19891 15.5714C5.77769 15.9066 6.39833 16.1636 7.04461 16.3357C7.12978 16.3583 7.21907 16.3607 7.30529 16.3425C7.39152 16.3243 7.47226 16.2861 7.54102 16.2309L8.84812 15.1875C8.94937 15.1903 9.05063 15.1903 9.15188 15.1875L10.4625 16.2366C10.5313 16.2916 10.6121 16.3296 10.6983 16.3477C10.7845 16.3658 10.8738 16.3634 10.9589 16.3406C11.6054 16.1686 12.226 15.9114 12.8046 15.5756C12.8803 15.5317 12.9447 15.4706 12.9927 15.3974C13.0407 15.3242 13.0709 15.2407 13.0809 15.1538L13.2666 13.4859C13.3397 13.4166 13.41 13.3463 13.4775 13.275L15.1495 13.0781C15.2366 13.068 15.32 13.0377 15.3933 12.9896C15.4665 12.9415 15.5275 12.8769 15.5714 12.8011C15.9066 12.2223 16.1636 11.6017 16.3357 10.9554C16.3583 10.8702 16.3607 10.7809 16.3425 10.6947C16.3243 10.6085 16.2861 10.5277 16.2309 10.459L15.1875 9.15188ZM9 11.8125C8.44374 11.8125 7.89997 11.6476 7.43746 11.3385C6.97495 11.0295 6.61446 10.5902 6.40159 10.0763C6.18872 9.56238 6.13302 8.99688 6.24154 8.45131C6.35006 7.90574 6.61793 7.4046 7.01126 7.01126C7.4046 6.61793 7.90574 6.35006 8.45131 6.24154C8.99688 6.13302 9.56238 6.18872 10.0763 6.40159C10.5902 6.61446 11.0295 6.97495 11.3385 7.43746C11.6476 7.89997 11.8125 8.44374 11.8125 9C11.8125 9.74592 11.5162 10.4613 10.9887 10.9887C10.4613 11.5162 9.74592 11.8125 9 11.8125Z" fill="#18181B"/>
</svg>
