<svg width="18" height="18" viewBox="0 0 18 18" fill="none" xmlns="http://www.w3.org/2000/svg">
<path d="M16.875 9C16.8755 9.19099 16.8265 9.37885 16.7329 9.5453C16.6392 9.71176 16.5041 9.85115 16.3406 9.94992L6.21 16.1473C6.0392 16.2519 5.84358 16.3089 5.64334 16.3127C5.44309 16.3164 5.24549 16.2666 5.07094 16.1684C4.89805 16.0717 4.75402 15.9307 4.65368 15.7599C4.55333 15.5892 4.50029 15.3947 4.5 15.1966V2.80336C4.50029 2.60528 4.55333 2.41085 4.65368 2.24007C4.75402 2.06928 4.89805 1.92831 5.07094 1.83164C5.24549 1.73345 5.44309 1.68363 5.64334 1.68734C5.84358 1.69105 6.0392 1.74815 6.21 1.85273L16.3406 8.05008C16.5041 8.14885 16.6392 8.28824 16.7329 8.4547C16.8265 8.62115 16.8755 8.80901 16.875 9Z" fill="#18181B"/>
</svg>
