<svg width="18" height="18" viewBox="0 0 18 18" fill="none" xmlns="http://www.w3.org/2000/svg">
<path d="M15.023 7.14797L9.39797 12.773C9.34573 12.8253 9.28369 12.8668 9.2154 12.8951C9.14712 12.9234 9.07392 12.9379 9 12.9379C8.92608 12.9379 8.85288 12.9234 8.7846 12.8951C8.71631 12.8668 8.65427 12.8253 8.60203 12.773L2.97703 7.14797C2.89827 7.0693 2.84463 6.96903 2.82289 6.85986C2.80115 6.75069 2.81229 6.63752 2.8549 6.53468C2.89751 6.43184 2.96968 6.34396 3.06226 6.28216C3.15484 6.22036 3.26368 6.18741 3.375 6.1875H14.625C14.7363 6.18741 14.8452 6.22036 14.9377 6.28216C15.0303 6.34396 15.1025 6.43184 15.1451 6.53468C15.1877 6.63752 15.1989 6.75069 15.1771 6.85986C15.1554 6.96903 15.1017 7.0693 15.023 7.14797Z" fill="#A1A1AA"/>
</svg>
