<svg preserveAspectRatio="none" width="100%" height="100%" overflow="visible" style="display: block;" viewBox="0 0 16 16" fill="none" xmlns="http://www.w3.org/2000/svg">
<g id="Frame">
<path id="Vector" d="M14.25 10.9375C14.1929 10.9701 14.1299 10.991 14.0647 10.9993C13.9995 11.0075 13.9333 11.0027 13.8699 10.9853C13.8065 10.9679 13.7471 10.9381 13.6953 10.8978C13.6434 10.8574 13.6 10.8072 13.5675 10.75L12.38 8.675C11.6896 9.1418 10.9281 9.49345 10.125 9.71625L10.4919 11.9175C10.5027 11.9823 10.5006 12.0486 10.4858 12.1126C10.471 12.1766 10.4437 12.2371 10.4055 12.2905C10.3674 12.344 10.319 12.3894 10.2632 12.4242C10.2075 12.4589 10.1454 12.4824 10.0806 12.4931C10.054 12.4975 10.027 12.4998 10 12.5C9.88172 12.4998 9.76732 12.4577 9.67715 12.3812C9.58698 12.3046 9.52687 12.1986 9.5075 12.0819L9.14688 9.92062C8.38637 10.0265 7.61488 10.0265 6.85437 9.92062L6.49375 12.0819C6.47435 12.1988 6.41405 12.305 6.32362 12.3816C6.23319 12.4581 6.1185 12.5001 6 12.5C5.97236 12.4999 5.94478 12.4976 5.9175 12.4931C5.85269 12.4824 5.79063 12.4589 5.73488 12.4242C5.67913 12.3894 5.63077 12.344 5.59258 12.2905C5.55439 12.2371 5.5271 12.1766 5.51229 12.1126C5.49748 12.0486 5.49542 11.9823 5.50625 11.9175L5.875 9.71625C5.07227 9.49275 4.31113 9.14046 3.62125 8.67312L2.4375 10.75C2.3712 10.8655 2.26171 10.95 2.13313 10.9848C2.00455 11.0196 1.86741 11.0019 1.75188 10.9356C1.63634 10.8693 1.55188 10.7598 1.51706 10.6313C1.48225 10.5027 1.49995 10.3655 1.56625 10.25L2.81625 8.0625C2.37719 7.68317 1.97345 7.26479 1.61 6.8125C1.56467 6.76189 1.53014 6.70258 1.5085 6.63818C1.48686 6.57378 1.47857 6.50565 1.48414 6.43794C1.4897 6.37023 1.50901 6.30437 1.54088 6.24437C1.57275 6.18437 1.61651 6.13149 1.6695 6.08897C1.72248 6.04645 1.78357 6.01517 1.84905 5.99704C1.91452 5.97891 1.98301 5.97432 2.05031 5.98354C2.11762 5.99276 2.18235 6.0156 2.24053 6.05067C2.29872 6.08574 2.34915 6.13229 2.38875 6.1875C3.42625 7.47125 5.24125 9 8 9C10.7587 9 12.5738 7.46937 13.6113 6.1875C13.6504 6.13116 13.7007 6.08349 13.7591 6.04743C13.8174 6.01138 13.8826 5.98772 13.9505 5.97793C14.0184 5.96814 14.0876 5.97242 14.1537 5.99052C14.2199 6.00861 14.2817 6.04013 14.3351 6.08311C14.3886 6.12609 14.4326 6.17961 14.4645 6.24035C14.4964 6.30108 14.5155 6.36773 14.5205 6.43614C14.5255 6.50456 14.5164 6.57328 14.4938 6.63803C14.4711 6.70277 14.4354 6.76216 14.3888 6.8125C14.0253 7.26479 13.6216 7.68317 13.1825 8.0625L14.4325 10.25C14.4661 10.307 14.488 10.3701 14.4969 10.4357C14.5059 10.5012 14.5018 10.5679 14.4848 10.6319C14.4679 10.6958 14.4384 10.7558 14.3981 10.8082C14.3577 10.8607 14.3074 10.9046 14.25 10.9375Z" fill="var(--fill-0, #71717A)"/>
</g>
</svg>
