<svg width="80" height="80" viewBox="0 0 80 80" fill="none" xmlns="http://www.w3.org/2000/svg">
<path d="M56.6667 6.66667H23.3333C21.5652 6.66667 19.8695 7.36904 18.6193 8.61929C17.369 9.86953 16.6667 11.5652 16.6667 13.3333V70C16.6667 70.8841 17.0179 71.7319 17.643 72.357C18.2681 72.9821 19.1159 73.3333 20 73.3333H60C60.8841 73.3333 61.7319 72.9821 62.357 72.357C62.9821 71.7319 63.3333 70.8841 63.3333 70V13.3333C63.3333 11.5652 62.631 9.86953 61.3807 8.61929C60.1305 7.36904 58.4348 6.66667 56.6667 6.66667ZM36.6667 53.3333H26.6667V46.6667H36.6667V53.3333ZM36.6667 40H26.6667V33.3333H36.6667V40ZM36.6667 26.6667H26.6667V20H36.6667V26.6667ZM53.3333 53.3333H43.3333V46.6667H53.3333V53.3333ZM53.3333 40H43.3333V33.3333H53.3333V40ZM53.3333 26.6667H43.3333V20H53.3333V26.6667Z" fill="#D4D4D8"/>
</svg>
