<svg preserveAspectRatio="none" width="100%" height="100%" overflow="visible" style="display: block;" viewBox="0 0 28 28" fill="none" xmlns="http://www.w3.org/2000/svg">
<g id="Frame">
<path id="Vector" d="M19.3538 12.3538L14.3537 17.3538C14.3073 17.4002 14.2522 17.4371 14.1915 17.4623C14.1308 17.4874 14.0657 17.5004 14 17.5004C13.9343 17.5004 13.8692 17.4874 13.8085 17.4623C13.7478 17.4371 13.6927 17.4002 13.6462 17.3538L8.64625 12.3538C8.55243 12.2599 8.49972 12.1327 8.49972 12C8.49972 11.8673 8.55243 11.7401 8.64625 11.6463C8.74007 11.5524 8.86732 11.4997 9 11.4997C9.13268 11.4997 9.25993 11.5524 9.35375 11.6463L14 16.2931L18.6462 11.6463C18.6927 11.5998 18.7479 11.5629 18.8086 11.5378C18.8692 11.5127 18.9343 11.4997 19 11.4997C19.0657 11.4997 19.1308 11.5127 19.1914 11.5378C19.2521 11.5629 19.3073 11.5998 19.3538 11.6463C19.4002 11.6927 19.4371 11.7479 19.4622 11.8086C19.4873 11.8692 19.5003 11.9343 19.5003 12C19.5003 12.0657 19.4873 12.1308 19.4622 12.1914C19.4371 12.2521 19.4002 12.3073 19.3538 12.3538Z" fill="var(--fill-0, #3F3F46)"/>
</g>
</svg>
