<svg preserveAspectRatio="none" width="100%" height="100%" overflow="visible" style="display: block;" viewBox="0 0 12.551 14.2093" fill="none" xmlns="http://www.w3.org/2000/svg">
<g id="Group">
<g id="Vector">
</g>
<path id="Vector_2" d="M5 0.5C5.56528 0.5 6.00735 0.798153 6.34473 1.34375L6.48242 1.59277C6.77253 2.17386 6.81043 2.89726 6.82812 3.67773L6.83887 4.16699H10.5508C10.7582 4.16697 10.9634 4.20967 11.1533 4.29297C11.3434 4.37635 11.5148 4.49863 11.6553 4.65137C11.7956 4.80402 11.9025 4.98449 11.9697 5.18066C12.037 5.37693 12.0632 5.58525 12.0459 5.79199L11.8047 8.67871C11.7179 9.72032 11.2428 10.6917 10.4736 11.3994C9.70451 12.107 8.69746 12.5 7.65234 12.5H6.64355C5.62578 12.5019 4.64298 12.1289 3.88281 11.4521L3.88184 11.4512L3.76758 11.3604C3.64908 11.2766 3.51675 11.2132 3.37695 11.1719C3.23725 11.1307 3.09214 11.1122 2.94727 11.1182L2.80371 11.1318C2.64822 11.155 2.49119 11.1672 2.33398 11.167H2.33301C1.80432 11.1669 1.33794 10.8767 1.01172 10.3359C0.688771 9.80127 0.5 9.01836 0.5 8C0.5 6.98194 0.689037 6.19912 1.01172 5.66406H1.0127C1.33891 5.12286 1.80446 4.83313 2.33301 4.83301C2.46317 4.83301 2.61532 4.85725 2.78223 4.9043L3.22266 5.02832L3.38477 4.60059C3.68063 3.82536 3.92012 2.97264 3.85254 2.05762L3.83496 1.87402L3.82715 1.74414C3.82589 1.09967 4.37678 0.5 5 0.5Z" fill="var(--fill-0, #5B3D7A)" stroke="var(--stroke-0, #5B3D7A)"/>
</g>
</svg>
