<svg width="100%" height="100%" viewBox="0 0 16 16" fill="none" xmlns="http://www.w3.org/2000/svg">
<g transform="translate(2.5, 2) scale(1.1, 1.090909)">
<path d="M6.70406 11C6.53487 11 6.35393 10.9887 6.16016 10.964L0 9.89994V4.94969L2.42055 3.60653C2.42055 3.60653 4.36617 0.00551483 4.36635 0.00551483C5.69977 -0.0640945 6.63615 0.518407 6.21477 2.14353C6.08716 2.63561 5.91768 3.29961 5.91768 3.29961H7.83938C8.51229 3.29961 9.0981 3.55936 9.48958 4.00223C9.91789 4.48699 10.0849 5.16217 9.95922 5.90369L9.9581 5.90746C9.84083 6.57081 9.52643 8.30787 9.14781 9.26987C8.95347 9.76242 8.46597 11 6.70406 11Z" fill="#FBBB45"/>
</g>
</svg>
