<svg preserveAspectRatio="none" width="100%" height="100%" overflow="visible" style="display: block;" viewBox="0 0 15 17" fill="none" xmlns="http://www.w3.org/2000/svg">
<path id="Vector" d="M10.0561 17C9.80231 17 9.5309 16.9825 9.24024 16.9444L0 15.2999V7.64951L3.63082 5.57374C3.63082 5.57374 6.54926 0.00852292 6.54953 0.00852292C8.54965 -0.0990551 9.95422 0.801174 9.32215 3.31272C9.13074 4.07322 8.87653 5.0994 8.87653 5.0994H11.7591C12.7684 5.0994 13.6472 5.50082 14.2344 6.18526C14.8768 6.93444 15.1273 7.97791 14.9388 9.12389L14.9372 9.12971C14.7613 10.1549 14.2897 12.8394 13.7217 14.3262C13.4302 15.0874 12.6989 17 10.0561 17Z" fill="var(--fill-0, #FBB03B)"/>
</svg>
