<svg width="16" height="16" viewBox="0 0 16 16" fill="none" xmlns="http://www.w3.org/2000/svg">
<path d="M14.7988 13.2381C14.6641 13.4719 14.4696 13.6657 14.2354 13.7996C14.0011 13.9335 13.7354 14.0026 13.4656 14H2.53438C2.26456 14.0026 1.9989 13.9335 1.76464 13.7996C1.53037 13.6657 1.33593 13.4719 1.20125 13.2381C1.06983 13.0132 1.00058 12.7574 1.00058 12.4969C1.00058 12.2364 1.06983 11.9806 1.20125 11.7556L6.66563 2.26375C6.80221 2.0312 6.99719 1.83839 7.23125 1.70441C7.4653 1.57044 7.73031 1.49996 8 1.49996C8.26969 1.49996 8.5347 1.57044 8.76875 1.70441C9.00281 1.83839 9.1978 2.0312 9.33438 2.26375L14.8 11.7556C14.9312 11.9807 15.0003 12.2365 15 12.497C14.9998 12.7575 14.9304 13.0133 14.7988 13.2381Z" fill="#2D64FA"/>
</svg>
