<svg preserveAspectRatio="none" width="100%" height="100%" overflow="visible" style="display: block;" viewBox="0 0 19.25 19.25" fill="none" xmlns="http://www.w3.org/2000/svg">
<path id="Vector" d="M4.375 1.94439e-06C3.50971 1.94439e-06 2.66385 0.256591 1.94438 0.737322C1.22492 1.21805 0.664162 1.90134 0.333029 2.70076C0.00189561 3.50019 -0.084744 4.37986 0.0840664 5.22852C0.252877 6.07719 0.669555 6.85674 1.28141 7.46859C1.89326 8.08045 2.67282 8.49713 3.52148 8.66594C4.37015 8.83475 5.24982 8.74811 6.04924 8.41698C6.84867 8.08584 7.53195 7.52509 8.01268 6.80562C8.49341 6.08616 8.75 5.2403 8.75 4.375C8.75 3.21468 8.28907 2.10188 7.46859 1.28141C6.64812 0.460938 5.53532 1.94439e-06 4.375 1.94439e-06ZM4.375 7C3.85583 7 3.34831 6.84605 2.91663 6.55761C2.48495 6.26917 2.1485 5.8592 1.94982 5.37955C1.75114 4.89989 1.69915 4.37209 1.80044 3.86289C1.90173 3.35369 2.15173 2.88596 2.51885 2.51885C2.88596 2.15173 3.35369 1.90173 3.86289 1.80044C4.37209 1.69915 4.89989 1.75114 5.37955 1.94982C5.8592 2.1485 6.26917 2.48495 6.55761 2.91663C6.84605 3.34831 7 3.85583 7 4.375C7 5.0712 6.72344 5.73888 6.23116 6.23116C5.73888 6.72344 5.0712 7 4.375 7ZM14.875 8.75C15.7403 8.75 16.5862 8.49341 17.3056 8.01268C18.0251 7.53195 18.5858 6.84867 18.917 6.04924C19.2481 5.24982 19.3347 4.37015 19.1659 3.52148C18.9971 2.67282 18.5804 1.89326 17.9686 1.28141C17.3567 0.669555 16.5772 0.252877 15.7285 0.0840664C14.8799 -0.084744 14.0002 0.00189561 13.2008 0.333029C12.4013 0.664162 11.7181 1.22492 11.2373 1.94438C10.7566 2.66385 10.5 3.50971 10.5 4.375C10.5 5.53532 10.9609 6.64812 11.7814 7.46859C12.6019 8.28907 13.7147 8.75 14.875 8.75ZM14.875 1.75C15.3942 1.75 15.9017 1.90396 16.3334 2.19239C16.7651 2.48083 17.1015 2.8908 17.3002 3.37046C17.4989 3.85011 17.5509 4.37791 17.4496 4.88711C17.3483 5.39631 17.0983 5.86405 16.7312 6.23116C16.364 6.59827 15.8963 6.84828 15.3871 6.94956C14.8779 7.05085 14.3501 6.99887 13.8705 6.80019C13.3908 6.60151 12.9808 6.26505 12.6924 5.83337C12.404 5.4017 12.25 4.89418 12.25 4.375C12.25 3.67881 12.5266 3.01113 13.0188 2.51885C13.5111 2.02656 14.1788 1.75 14.875 1.75ZM4.375 10.5C3.50971 10.5 2.66385 10.7566 1.94438 11.2373C1.22492 11.7181 0.664162 12.4013 0.333029 13.2008C0.00189561 14.0002 -0.084744 14.8799 0.0840664 15.7285C0.252877 16.5772 0.669555 17.3567 1.28141 17.9686C1.89326 18.5804 2.67282 18.9971 3.52148 19.1659C4.37015 19.3347 5.24982 19.2481 6.04924 18.917C6.84867 18.5858 7.53195 18.0251 8.01268 17.3056C8.49341 16.5862 8.75 15.7403 8.75 14.875C8.75 13.7147 8.28907 12.6019 7.46859 11.7814C6.64812 10.9609 5.53532 10.5 4.375 10.5ZM4.375 17.5C3.85583 17.5 3.34831 17.346 2.91663 17.0576C2.48495 16.7692 2.1485 16.3592 1.94982 15.8795C1.75114 15.3999 1.69915 14.8721 1.80044 14.3629C1.90173 13.8537 2.15173 13.386 2.51885 13.0188C2.88596 12.6517 3.35369 12.4017 3.86289 12.3004C4.37209 12.1992 4.89989 12.2511 5.37955 12.4498C5.8592 12.6485 6.26917 12.985 6.55761 13.4166C6.84605 13.8483 7 14.3558 7 14.875C7 15.5712 6.72344 16.2389 6.23116 16.7312C5.73888 17.2234 5.0712 17.5 4.375 17.5ZM19.25 14.875C19.25 15.1071 19.1578 15.3296 18.9937 15.4937C18.8296 15.6578 18.6071 15.75 18.375 15.75H15.75V18.375C15.75 18.6071 15.6578 18.8296 15.4937 18.9937C15.3296 19.1578 15.1071 19.25 14.875 19.25C14.6429 19.25 14.4204 19.1578 14.2563 18.9937C14.0922 18.8296 14 18.6071 14 18.375V15.75H11.375C11.1429 15.75 10.9204 15.6578 10.7563 15.4937C10.5922 15.3296 10.5 15.1071 10.5 14.875C10.5 14.6429 10.5922 14.4204 10.7563 14.2563C10.9204 14.0922 11.1429 14 11.375 14H14V11.375C14 11.1429 14.0922 10.9204 14.2563 10.7563C14.4204 10.5922 14.6429 10.5 14.875 10.5C15.1071 10.5 15.3296 10.5922 15.4937 10.7563C15.6578 10.9204 15.75 11.1429 15.75 11.375V14H18.375C18.6071 14 18.8296 14.0922 18.9937 14.2563C19.1578 14.4204 19.25 14.6429 19.25 14.875Z" fill="var(--fill-0, white)" fill-opacity="0.28"/>
</svg>
