<svg preserveAspectRatio="none" width="100%" height="100%" overflow="visible" style="display: block;" viewBox="0 0 21.0001 18.748" fill="none" xmlns="http://www.w3.org/2000/svg">
<path id="Vector" d="M11.25 9.74798V14.998C11.25 15.1969 11.171 15.3877 11.0304 15.5283C10.8897 15.669 10.699 15.748 10.5 15.748C10.3011 15.748 10.1104 15.669 9.96972 15.5283C9.82907 15.3877 9.75005 15.1969 9.75005 14.998V9.74798C9.75005 9.54907 9.82907 9.35831 9.96972 9.21765C10.1104 9.077 10.3011 8.99798 10.5 8.99798C10.699 8.99798 10.8897 9.077 11.0304 9.21765C11.171 9.35831 11.25 9.54907 11.25 9.74798ZM14.7038 9.67298L14.1788 14.923C14.1684 15.0213 14.1776 15.1207 14.2057 15.2154C14.2339 15.3101 14.2805 15.3984 14.3429 15.475C14.4053 15.5517 14.4822 15.6153 14.5692 15.6621C14.6563 15.709 14.7517 15.7382 14.85 15.748C14.8753 15.7494 14.9007 15.7494 14.926 15.748C15.1118 15.7478 15.2908 15.6786 15.4285 15.5539C15.5662 15.4292 15.6527 15.2578 15.6713 15.073L16.1963 9.82298C16.2162 9.62507 16.1566 9.42735 16.0308 9.27334C15.9049 9.11933 15.723 9.02163 15.525 9.00173C15.3271 8.98184 15.1294 9.04139 14.9754 9.16727C14.8214 9.29316 14.7237 9.47507 14.7038 9.67298ZM6.2963 9.67298C6.27641 9.47507 6.17871 9.29316 6.0247 9.16727C5.87068 9.04139 5.67297 8.98184 5.47505 9.00173C5.27713 9.02163 5.09522 9.11933 4.96934 9.27334C4.84345 9.42735 4.78391 9.62507 4.8038 9.82298L5.3288 15.073C5.34746 15.2586 5.43464 15.4307 5.57332 15.5555C5.712 15.6803 5.89222 15.7489 6.0788 15.748C6.10409 15.7494 6.12944 15.7494 6.15474 15.748C6.25274 15.7381 6.34784 15.7091 6.43461 15.6625C6.52138 15.6159 6.59812 15.5526 6.66045 15.4764C6.72278 15.4001 6.76948 15.3123 6.79789 15.218C6.82629 15.1237 6.83584 15.0247 6.82599 14.9267L6.2963 9.67298ZM20.9935 6.84736L19.5807 17.4467C19.5314 17.8065 19.3538 18.1363 19.0805 18.3754C18.8073 18.6145 18.4569 18.7468 18.0938 18.748H2.9063C2.54322 18.7468 2.19278 18.6145 1.91955 18.3754C1.64632 18.1363 1.46871 17.8065 1.41943 17.4467L0.00661279 6.84736C-0.00754999 6.74141 0.001097 6.63366 0.0319742 6.53133C0.0628513 6.429 0.115245 6.33445 0.185645 6.25402C0.256044 6.17359 0.342823 6.10913 0.440164 6.06498C0.537506 6.02082 0.643161 5.99798 0.75005 5.99798H4.90974L9.93755 0.253922C10.0079 0.174117 10.0945 0.110201 10.1915 0.0664215C10.2885 0.0226418 10.3936 0 10.5 0C10.6065 0 10.7116 0.0226418 10.8086 0.0664215C10.9056 0.110201 10.9922 0.174117 11.0625 0.253922L16.0904 5.99798H20.25C20.3569 5.99798 20.4626 6.02082 20.5599 6.06498C20.6573 6.10913 20.7441 6.17359 20.8145 6.25402C20.8849 6.33445 20.9372 6.429 20.9681 6.53133C20.999 6.63366 21.0076 6.74141 20.9935 6.84736ZM6.90286 5.99798H14.0972L10.5 1.88705L6.90286 5.99798ZM19.3932 7.49798H1.60693L2.9063 17.248H18.0938L19.3932 7.49798Z" fill="var(--fill-0, white)" fill-opacity="0.36"/>
</svg>
